<svg width="1177" height="2176" viewBox="0 0 1177 2176" fill="none" xmlns="http://www.w3.org/2000/svg">
<path d="M216.345 83.0204C220.448 83.0351 224.551 83.0203 228.654 83.0095C235.819 82.9946 242.984 82.998 250.15 83.0139C260.806 83.0375 271.461 83.0321 282.117 83.0212C301.154 83.0027 320.191 83.0123 339.228 83.0337C355.886 83.0523 372.544 83.0607 389.202 83.0591C390.862 83.059 390.862 83.059 392.556 83.0589C397.051 83.0585 401.545 83.058 406.04 83.0575C448.155 83.0526 490.27 83.0752 532.384 83.1114C569.768 83.1434 607.151 83.1555 644.535 83.1494C646.936 83.149 649.337 83.1486 651.738 83.1482C652.926 83.148 654.113 83.1478 655.336 83.1476C661.312 83.1467 667.288 83.1457 673.264 83.1449C674.444 83.1447 675.623 83.1445 676.838 83.1443C708.116 83.14 739.395 83.15 770.674 83.1647C771.787 83.1652 772.9 83.1658 774.047 83.1663C775.714 83.1671 775.714 83.1671 777.414 83.1679C778.523 83.1684 779.632 83.1689 780.775 83.1694C783.008 83.1705 785.241 83.1715 787.475 83.1726C803.02 83.18 818.565 83.1821 834.11 83.1806C854.143 83.1788 874.176 83.1869 894.21 83.2123C904.795 83.2254 915.379 83.2305 925.964 83.2236C933.045 83.2199 940.127 83.2272 947.208 83.2432C951.235 83.252 955.262 83.2564 959.289 83.2473C980.899 83.203 1001.94 83.5868 1022.49 90.9721C1024.41 91.6543 1026.34 92.289 1028.27 92.9199C1063.76 104.887 1090.91 132.293 1108.4 164.65C1108.78 165.341 1109.17 166.032 1109.57 166.744C1123.55 192.868 1124.71 221.79 1124.65 250.736C1124.65 254.413 1124.66 258.091 1124.66 261.768C1124.67 268.224 1124.67 274.68 1124.66 281.136C1124.66 290.801 1124.66 300.465 1124.67 310.13C1124.68 326.605 1124.68 343.08 1124.68 359.555C1124.67 376.245 1124.67 392.935 1124.68 409.626C1124.68 410.681 1124.68 411.736 1124.68 412.823C1124.68 417.12 1124.68 421.417 1124.68 425.714C1124.7 469.317 1124.7 512.919 1124.7 556.521C1124.7 562.545 1124.7 568.568 1124.7 574.591C1124.7 576.385 1124.7 576.385 1124.7 578.216C1124.7 604.735 1124.7 631.253 1124.7 657.772C1124.7 663.828 1124.7 669.884 1124.71 675.94C1124.71 678.37 1124.71 680.801 1124.71 683.232C1124.71 684.436 1124.71 685.641 1124.71 686.882C1124.71 689.319 1124.71 691.756 1124.71 694.193C1124.72 763.335 1124.72 832.477 1124.72 901.619C1124.72 902.899 1124.72 904.179 1124.72 905.498C1124.72 919.773 1124.71 934.048 1124.71 948.324C1124.71 949.612 1124.71 950.901 1124.71 952.229C1124.71 962.938 1124.71 962.938 1124.71 967.866C1124.71 1050.32 1124.71 1132.77 1124.73 1215.22C1124.74 1235.99 1124.74 1256.77 1124.75 1277.55C1124.75 1278.83 1124.75 1280.11 1124.75 1281.43C1124.76 1320.85 1124.76 1360.28 1124.76 1399.71C1124.76 1400.95 1124.76 1402.18 1124.76 1403.46C1124.76 1430.63 1124.76 1457.8 1124.76 1484.97C1124.76 1494.69 1124.76 1504.42 1124.76 1514.14C1124.76 1516.56 1124.76 1518.98 1124.76 1521.39C1124.76 1559.94 1124.77 1598.48 1124.78 1637.02C1124.79 1676.91 1124.79 1716.8 1124.78 1756.69C1124.78 1760.98 1124.77 1765.26 1124.77 1769.54C1124.77 1770.59 1124.77 1771.65 1124.77 1772.73C1124.77 1789.37 1124.77 1806.02 1124.78 1822.66C1124.79 1839.03 1124.79 1855.4 1124.78 1871.77C1124.77 1881.36 1124.77 1890.96 1124.79 1900.55C1124.79 1906.93 1124.79 1913.31 1124.78 1919.68C1124.77 1923.3 1124.77 1926.91 1124.78 1930.52C1124.83 1945.52 1124.43 1959.93 1121.4 1974.65C1121.19 1975.67 1120.98 1976.69 1120.76 1977.74C1120.29 1979.96 1119.74 1982.15 1119.15 1984.34C1118.94 1985.11 1118.73 1985.89 1118.51 1986.69C1116.25 1994.71 1113.07 2002.19 1109.4 2009.65C1108.93 2010.62 1108.93 2010.62 1108.45 2011.6C1101.96 2024.8 1093.51 2035.97 1083.4 2046.65C1082.53 2047.6 1081.66 2048.54 1080.76 2049.52C1058.48 2073.22 1027.31 2087.23 995.397 2091.65C994.441 2091.82 993.484 2092 992.499 2092.17C986.74 2092.99 980.915 2092.79 975.112 2092.78C973.747 2092.79 972.382 2092.79 971.017 2092.79C967.26 2092.8 963.503 2092.8 959.745 2092.8C955.66 2092.8 951.574 2092.8 947.489 2092.81C939.382 2092.82 931.276 2092.82 923.169 2092.82C913.46 2092.83 903.75 2092.84 894.041 2092.84C870.569 2092.87 847.097 2092.88 823.625 2092.88C812.517 2092.89 801.41 2092.89 790.302 2092.9C752.267 2092.92 714.232 2092.93 676.197 2092.94C673.809 2092.94 671.421 2092.94 669.033 2092.94C667.256 2092.94 667.257 2092.94 665.444 2092.94C659.445 2092.94 653.445 2092.94 647.446 2092.95C645.66 2092.95 645.66 2092.95 643.838 2092.95C605.258 2092.95 566.678 2092.98 528.098 2093.01C487.296 2093.04 446.493 2093.06 405.691 2093.07C401.208 2093.07 396.725 2093.07 392.242 2093.07C390.587 2093.07 390.587 2093.07 388.897 2093.07C371.162 2093.07 353.428 2093.09 335.693 2093.11C317.849 2093.13 300.006 2093.13 282.162 2093.12C271.574 2093.12 260.986 2093.12 250.398 2093.15C243.308 2093.16 236.219 2093.16 229.129 2093.15C225.101 2093.14 221.072 2093.14 217.044 2093.16C177.235 2093.32 141.352 2086.63 109.397 2061.65C108.846 2061.22 108.295 2060.79 107.726 2060.35C83.7724 2041.4 66.106 2015.26 57.7098 1985.84C57.5194 1985.18 57.3289 1984.51 57.1327 1983.83C56.4908 1981.45 55.944 1979.06 55.3973 1976.65C55.1472 1975.6 54.8971 1974.55 54.6395 1973.46C51.8107 1959.88 51.9732 1946.37 52.0177 1932.55C52.0262 1928.85 52.0171 1925.15 52.0103 1921.46C52.0008 1914.96 52.0024 1908.47 52.0113 1901.98C52.0246 1892.26 52.0205 1882.54 52.0131 1872.82C52.001 1856.25 52.003 1839.68 52.0128 1823.12C52.0227 1806.33 52.026 1789.54 52.0214 1772.76C52.0212 1771.7 52.0209 1770.64 52.0206 1769.54C52.0194 1765.22 52.0181 1760.9 52.0168 1756.58C52.0047 1716.35 52.0073 1676.12 52.019 1635.89C52.0303 1597.11 52.0363 1558.34 52.0348 1519.57C52.0348 1517.14 52.0347 1514.7 52.0346 1512.27C52.0342 1502.49 52.0339 1492.7 52.0334 1482.92C52.0322 1455.57 52.032 1428.22 52.0326 1400.87C52.0326 1399.62 52.0327 1398.38 52.0327 1397.1C52.0336 1357.41 52.0389 1317.72 52.0473 1278.04C52.0477 1276.11 52.0477 1276.11 52.0482 1274.14C52.0526 1253.23 52.0573 1232.33 52.0621 1211.42C52.0808 1128.51 52.0872 1045.6 52.0817 962.684C52.0813 957.444 52.081 952.204 52.0806 946.964C52.0805 945.669 52.0805 944.373 52.0804 943.038C52.0794 928.691 52.0785 914.343 52.0777 899.996C52.0776 898.709 52.0775 897.423 52.0774 896.097C52.0732 826.65 52.0785 757.204 52.0872 687.757C52.0875 685.309 52.0878 682.86 52.0881 680.412C52.0882 679.202 52.0884 677.992 52.0885 676.745C52.0888 674.304 52.0891 671.862 52.0894 669.421C52.0902 663.339 52.0909 657.256 52.0917 651.174C52.0951 624.506 52.0971 597.838 52.0958 571.17C52.0957 569.968 52.0956 568.766 52.0956 567.528C52.0953 561.476 52.0949 555.424 52.0946 549.372C52.0921 505.648 52.0962 461.924 52.1118 418.2C52.1133 413.893 52.1148 409.587 52.1163 405.281C52.1168 403.696 52.1168 403.696 52.1173 402.078C52.1229 385.336 52.1217 368.593 52.1178 351.851C52.1142 335.393 52.1176 318.935 52.1287 302.477C52.135 292.826 52.1358 283.175 52.1286 273.523C52.1244 267.113 52.1274 260.703 52.1363 254.293C52.1412 250.659 52.143 247.026 52.1358 243.393C52.1053 226.668 52.1518 210.519 56.5848 194.275C56.7999 193.481 57.0149 192.687 57.2365 191.869C63.0987 171.057 73.2953 152.014 87.3973 135.65C87.8419 135.127 88.2865 134.605 88.7445 134.066C99.2982 121.746 111.408 111.834 125.397 103.65C126.052 103.266 126.707 102.882 127.382 102.486C155.075 86.4787 184.82 82.8637 216.345 83.0204Z" fill="#FACD59"/>
<path d="M165.962 0.139321C167.466 0.136924 168.97 0.133655 170.475 0.129604C174.577 0.121056 178.679 0.124781 182.781 0.13066C187.256 0.134855 191.731 0.127414 196.206 0.121508C204.039 0.112767 211.871 0.111426 219.704 0.115011C231.352 0.120328 243 0.114212 254.648 0.105928C276.665 0.0906994 298.681 0.0889817 320.698 0.0914509C337.702 0.0932847 354.706 0.0915222 371.71 0.0872265C374.154 0.0866241 376.599 0.0860229 379.043 0.0854229C382.727 0.0845156 386.41 0.0836069 390.094 0.0826905C424.336 0.0742626 458.579 0.0699242 492.821 0.0740973C494.757 0.0743318 494.757 0.0743318 496.732 0.0745711C503.272 0.0753769 509.813 0.0762227 516.353 0.0770844C518.301 0.0773411 518.301 0.0773411 520.289 0.0776029C522.916 0.0779495 525.543 0.0782981 528.169 0.0786485C569.036 0.0840049 609.902 0.0760767 650.768 0.0576149C696.701 0.0368885 742.634 0.0261734 788.566 0.0301904C793.466 0.0305857 798.366 0.0309473 803.266 0.0312878C805.075 0.0314239 805.075 0.0314239 806.922 0.0315627C825.116 0.0327276 843.311 0.0260885 861.506 0.0154758C882.205 0.0034146 902.904 0.00187553 923.603 0.014266C935.179 0.0208854 946.754 0.0192848 958.329 0.0056775C966.073 -0.00258857 973.816 0.000158501 981.559 0.0116528C985.964 0.0178878 990.368 0.0195657 994.772 0.00778944C1017.09 -0.0478088 1039.22 0.00333548 1060.64 7.0813C1061.73 7.43015 1062.81 7.779 1063.93 8.13843C1084.25 14.8187 1102.28 24.2038 1118.39 38.3938C1119.25 39.1466 1120.11 39.8994 1121 40.675C1123.5 42.8838 1125.95 45.129 1128.39 47.3938C1129.03 47.97 1129.67 48.5462 1130.33 49.1399C1141.61 59.7318 1150.37 72.9649 1157.46 86.6213C1158.29 88.2032 1159.16 89.765 1160.03 91.3235C1175.12 119.295 1176.7 150.337 1176.65 181.365C1176.64 185.339 1176.65 189.313 1176.66 193.287C1176.67 200.267 1176.67 207.246 1176.66 214.226C1176.66 224.675 1176.66 235.125 1176.67 245.574C1176.68 263.385 1176.68 281.197 1176.68 299.008C1176.68 317.055 1176.68 335.102 1176.69 353.149C1176.69 354.29 1176.69 355.43 1176.69 356.605C1176.69 361.25 1176.69 365.894 1176.7 370.539C1176.72 418.982 1176.72 467.424 1176.72 515.867C1176.72 521.08 1176.72 526.294 1176.72 531.507C1176.72 532.801 1176.72 534.095 1176.72 535.428C1176.72 564.102 1176.73 592.776 1176.73 621.45C1176.74 633.259 1176.74 645.067 1176.74 656.875C1176.74 658.18 1176.74 659.485 1176.74 660.829C1176.75 691.559 1176.75 722.289 1176.75 753.019C1176.75 753.688 1176.75 754.358 1176.75 755.048C1176.76 797.707 1176.76 840.366 1176.76 883.025C1176.76 885.122 1176.76 887.219 1176.76 889.317C1176.76 904.051 1176.76 918.785 1176.76 933.519C1176.76 937.744 1176.76 941.968 1176.76 946.193C1176.76 949.717 1176.76 953.24 1176.76 956.764C1176.76 1023.32 1176.76 1089.87 1176.78 1156.42C1176.78 1157.12 1176.78 1157.82 1176.78 1158.54C1176.79 1180.43 1176.79 1202.32 1176.8 1224.21C1176.81 1246.67 1176.81 1269.13 1176.82 1291.59C1176.82 1292.63 1176.82 1292.63 1176.82 1293.69C1176.83 1337.02 1176.84 1380.35 1176.85 1423.67C1176.85 1424.34 1176.85 1425.01 1176.85 1425.7C1176.85 1455.76 1176.85 1485.82 1176.85 1515.88C1176.85 1526.39 1176.85 1536.91 1176.85 1547.42C1176.85 1550.04 1176.85 1552.65 1176.85 1555.27C1176.85 1596.94 1176.86 1638.6 1176.88 1680.27C1176.89 1722.24 1176.9 1764.21 1176.88 1806.18C1176.88 1811.98 1176.88 1817.79 1176.88 1823.59C1176.88 1825.29 1176.88 1825.29 1176.88 1827.03C1176.87 1845.03 1176.88 1863.02 1176.9 1881.01C1176.91 1898.72 1176.91 1916.42 1176.89 1934.12C1176.88 1944.49 1176.89 1954.86 1176.91 1965.23C1176.92 1972.13 1176.91 1979.03 1176.9 1985.93C1176.89 1989.84 1176.89 1993.74 1176.9 1997.64C1176.99 2019.61 1176.3 2041.89 1168.7 2062.77C1168.36 2063.75 1168.02 2064.73 1167.66 2065.73C1152.2 2108.7 1121.64 2141.88 1080.39 2161.39C1076.11 2163.24 1071.79 2164.87 1067.39 2166.39C1066.48 2166.74 1065.56 2167.08 1064.62 2167.44C1047.6 2173.62 1029.71 2175.55 1011.71 2175.53C1010.22 2175.53 1008.73 2175.53 1007.24 2175.53C1003.14 2175.54 999.037 2175.54 994.936 2175.53C990.474 2175.53 986.013 2175.54 981.551 2175.54C972.702 2175.55 963.852 2175.55 955.003 2175.55C944.402 2175.55 933.802 2175.56 923.202 2175.57C897.58 2175.58 871.958 2175.59 846.335 2175.59C834.211 2175.6 822.086 2175.6 809.962 2175.6C768.447 2175.62 726.933 2175.63 685.418 2175.63C682.813 2175.63 680.207 2175.63 677.601 2175.63C674.989 2175.63 672.376 2175.63 669.764 2175.63C664.524 2175.63 659.283 2175.63 654.043 2175.63C652.744 2175.63 651.444 2175.63 650.106 2175.63C607.991 2175.64 565.877 2175.65 523.763 2175.68C479.224 2175.7 434.686 2175.72 390.147 2175.72C385.255 2175.72 380.363 2175.72 375.471 2175.72C374.266 2175.72 373.062 2175.72 371.821 2175.72C352.458 2175.72 333.096 2175.73 313.734 2175.74C294.26 2175.76 274.786 2175.76 255.312 2175.75C243.752 2175.75 232.193 2175.75 220.633 2175.77C212.898 2175.78 205.162 2175.78 197.427 2175.77C193.029 2175.76 188.63 2175.76 184.232 2175.77C158.103 2175.84 133.41 2174.68 108.389 2166.39C107.237 2166.03 106.085 2165.66 104.897 2165.28C83.9934 2157.97 65.2622 2144.62 49.3894 2129.39C48.5721 2128.63 47.7548 2127.86 46.9128 2127.07C31.9802 2112.7 20.244 2094.55 12.3894 2075.39C11.8892 2074.21 11.389 2073.03 10.8737 2071.81C7.7028 2064.04 5.45091 2056.19 3.57686 2048.02C3.36988 2047.12 3.16291 2046.21 2.94966 2045.28C0.688134 2034.9 0.242831 2024.74 0.261701 2014.13C0.259225 2012.15 0.259222 2012.15 0.256696 2010.14C0.25226 2006.49 0.254024 2002.85 0.256803 1999.2C0.258729 1995.21 0.254841 1991.23 0.251706 1987.24C0.246996 1980.23 0.246006 1973.22 0.247434 1966.22C0.249555 1955.72 0.245946 1945.23 0.241223 1934.73C0.233349 1916.85 0.230263 1898.97 0.229779 1881.08C0.229277 1862.96 0.226632 1844.83 0.221372 1826.7C0.221042 1825.56 0.220705 1824.41 0.220365 1823.23C0.219015 1818.57 0.217655 1813.91 0.216275 1809.25C0.199969 1754.06 0.193584 1698.87 0.188825 1643.68C0.186442 1616.2 0.182735 1588.72 0.178785 1561.24C0.172271 1515.91 0.166234 1470.58 0.161252 1425.26C0.161178 1424.58 0.161099 1423.91 0.161023 1423.22C0.156329 1380.39 0.153513 1337.57 0.151868 1294.74C0.151732 1291.23 0.151595 1287.72 0.151456 1284.21C0.151234 1278.58 0.151005 1272.95 0.150785 1267.32C0.150757 1266.62 0.150736 1265.93 0.150708 1265.21C0.150653 1263.8 0.150596 1262.39 0.15054 1260.98C0.150154 1251.09 0.14976 1241.2 0.149366 1231.31C0.149224 1227.77 0.149091 1224.23 0.148954 1220.7C0.146349 1153.87 0.141022 1087.04 0.125074 1020.22C0.124906 1019.51 0.124743 1018.81 0.12457 1018.09C0.119319 996.107 0.11374 974.128 0.108106 952.149C0.102325 929.596 0.096598 907.044 0.0911533 884.492C0.0909855 883.797 0.0908074 883.103 0.0906345 882.388C0.0801399 838.892 0.073282 795.396 0.0702792 751.9C0.0702324 751.228 0.0701901 750.556 0.0701419 749.864C0.0680452 719.693 0.0668262 689.522 0.0664646 659.351C0.0663284 648.798 0.0661175 638.245 0.0658695 627.693C0.0658079 625.067 0.0657567 622.442 0.0657016 619.817C0.0647816 577.976 0.0548173 536.135 0.04025 494.294C0.0256367 452.153 0.0205895 410.013 0.0286685 367.872C0.0297839 362.048 0.0307873 356.225 0.0317355 350.401C0.0319255 349.26 0.0321197 348.118 0.0323154 346.942C0.0350489 328.868 0.0277128 310.794 0.0161716 292.719C0.00503216 274.946 0.00458713 257.173 0.0155307 239.399C0.0216254 228.98 0.0195351 218.561 0.00527681 208.142C-0.00337743 201.218 -0.00109259 194.293 0.00997651 187.368C0.0159429 183.446 0.0173815 179.524 0.00529207 175.602C-0.0514659 155.914 0.372735 136.65 6.13936 117.644C6.3954 116.778 6.65144 115.912 6.91523 115.02C9.42026 106.826 12.6254 99.0821 16.3894 91.3938C16.6854 90.7734 16.9814 90.1531 17.2863 89.5139C24.3298 74.879 34.1671 62.0892 45.3894 50.3938C46.2672 49.4528 47.1451 48.5118 48.0495 47.5422C63.2371 31.5528 82.018 19.7231 102.389 11.3938C103.172 11.0612 103.954 10.7286 104.76 10.386C110.885 7.95907 117.19 6.33479 123.577 4.7688C124.401 4.56255 125.225 4.3563 126.074 4.1438C139.272 1.02473 152.441 0.0937611 165.962 0.139321ZM109.389 114.394C108.836 114.828 108.282 115.262 107.711 115.71C82.6057 135.621 64.9372 163.101 56.5769 194.019C56.3819 194.733 56.1869 195.448 55.986 196.184C51.883 212.385 52.0976 228.618 52.1268 245.219C52.1311 248.911 52.1236 252.604 52.1178 256.297C52.109 262.784 52.1077 269.271 52.1112 275.758C52.1164 285.47 52.1102 295.182 52.1017 304.894C52.0876 321.448 52.083 338.002 52.0837 354.556C52.0843 371.33 52.0806 388.104 52.0717 404.878C52.0711 405.938 52.0705 406.998 52.07 408.09C52.0677 412.406 52.0654 416.723 52.063 421.039C52.0385 466.064 52.0283 511.088 52.0235 556.112C52.023 560.958 52.0224 565.804 52.0219 570.65C52.0218 571.853 52.0217 573.055 52.0215 574.294C52.0186 600.946 52.0125 627.597 52.0058 654.249C52.0031 665.224 52.0005 676.2 51.9978 687.175C51.9975 688.387 51.9972 689.6 51.9969 690.85C51.9803 760.341 51.9685 829.833 51.966 899.325C51.9659 901.926 51.9658 904.526 51.9657 907.127C51.9653 918.868 51.9649 930.609 51.9645 942.35C51.9643 947.586 51.9641 952.822 51.964 958.057C51.9639 960.678 51.9638 963.298 51.9637 965.919C51.9609 1048.78 51.9391 1131.64 51.9023 1214.5C51.8748 1276.29 51.8489 1338.09 51.8424 1399.88C51.8422 1401.13 51.8421 1402.37 51.8419 1403.65C51.8391 1430.97 51.8377 1458.28 51.8376 1485.59C51.8375 1495.36 51.8374 1505.13 51.8372 1514.91C51.8371 1517.34 51.8371 1519.77 51.837 1522.2C51.8363 1560.93 51.8206 1599.66 51.7974 1638.38C51.7741 1677.39 51.7669 1716.4 51.7816 1755.41C51.7836 1760.81 51.7855 1766.2 51.7872 1771.6C51.7876 1772.65 51.7879 1773.71 51.7883 1774.8C51.7934 1791.52 51.7817 1808.24 51.763 1824.97C51.7449 1841.42 51.7448 1857.88 51.7635 1874.33C51.774 1883.97 51.7709 1893.61 51.7474 1903.25C51.7332 1909.66 51.7373 1916.08 51.7559 1922.49C51.7659 1926.12 51.7686 1929.75 51.7485 1933.37C51.516 1978.19 64.2793 2017.4 95.8703 2049.92C111.447 2065.41 130.653 2077.23 151.389 2084.39C152.373 2084.73 152.373 2084.73 153.376 2085.08C174.8 2092.3 196.266 2092.84 218.662 2092.78C222.755 2092.77 226.847 2092.78 230.939 2092.79C238.095 2092.8 245.25 2092.8 252.405 2092.79C263.045 2092.78 273.685 2092.79 284.325 2092.8C303.333 2092.81 322.341 2092.81 341.35 2092.8C357.984 2092.79 374.619 2092.79 391.254 2092.8C392.359 2092.8 393.463 2092.8 394.602 2092.8C399.087 2092.8 403.572 2092.8 408.057 2092.8C450.103 2092.81 492.149 2092.8 534.195 2092.78C571.524 2092.77 608.853 2092.77 646.182 2092.78C688.153 2092.8 730.124 2092.81 772.095 2092.8C776.571 2092.8 781.048 2092.8 785.525 2092.8C786.627 2092.8 787.729 2092.79 788.865 2092.79C805.487 2092.79 822.108 2092.8 838.729 2092.8C857.635 2092.81 876.54 2092.81 895.445 2092.79C906.017 2092.78 916.589 2092.78 927.16 2092.79C934.232 2092.8 941.303 2092.8 948.375 2092.78C952.397 2092.78 956.419 2092.77 960.441 2092.79C979.917 2092.83 999.418 2092.79 1018.2 2086.89C1019 2086.65 1019.8 2086.4 1020.63 2086.14C1043.09 2078.81 1062.57 2066.82 1079.39 2050.39C1080.3 2049.56 1081.21 2048.72 1082.15 2047.85C1107.36 2024.05 1123.32 1987.31 1124.48 1952.66C1124.52 1949.5 1124.52 1946.35 1124.52 1943.19C1124.52 1941.37 1124.52 1941.37 1124.52 1939.52C1124.52 1936.16 1124.52 1932.79 1124.52 1929.43C1124.52 1925.76 1124.52 1922.08 1124.52 1918.41C1124.53 1911.95 1124.53 1905.49 1124.53 1899.03C1124.52 1889.35 1124.53 1879.68 1124.53 1870.01C1124.54 1853.52 1124.54 1837.03 1124.54 1820.55C1124.53 1803.84 1124.54 1787.13 1124.54 1770.42C1124.54 1768.84 1124.54 1768.84 1124.54 1767.22C1124.54 1762.92 1124.54 1758.63 1124.54 1754.33C1124.55 1709.49 1124.56 1664.66 1124.56 1619.82C1124.56 1614.99 1124.56 1610.16 1124.56 1605.33C1124.56 1604.13 1124.56 1602.94 1124.56 1601.7C1124.56 1575.16 1124.56 1548.63 1124.56 1522.09C1124.56 1511.16 1124.56 1500.24 1124.56 1489.31C1124.56 1488.11 1124.57 1486.9 1124.57 1485.66C1124.57 1416.48 1124.58 1347.29 1124.58 1278.11C1124.58 1275.52 1124.58 1272.93 1124.58 1270.34C1124.57 1258.65 1124.57 1246.96 1124.57 1235.27C1124.57 1230.05 1124.57 1224.84 1124.57 1219.63C1124.57 1217.02 1124.57 1214.41 1124.57 1211.8C1124.57 1129.28 1124.58 1046.76 1124.6 964.248C1124.6 943.458 1124.6 922.669 1124.61 901.88C1124.61 900.6 1124.61 899.32 1124.61 898.001C1124.61 858.553 1124.62 819.104 1124.62 779.656C1124.62 778.417 1124.62 777.179 1124.62 775.903C1124.62 748.717 1124.62 721.531 1124.62 694.345C1124.62 684.618 1124.62 674.89 1124.62 665.163C1124.62 662.743 1124.62 660.323 1124.62 657.903C1124.62 619.333 1124.62 580.764 1124.63 542.194C1124.64 503.348 1124.64 464.502 1124.64 425.656C1124.64 420.288 1124.63 414.92 1124.63 409.552C1124.63 408.5 1124.63 407.448 1124.63 406.364C1124.63 389.702 1124.64 373.041 1124.64 356.379C1124.65 339.995 1124.65 323.612 1124.64 307.228C1124.64 297.624 1124.64 288.019 1124.65 278.414C1124.65 272.031 1124.65 265.648 1124.64 259.265C1124.64 255.649 1124.64 252.034 1124.65 248.418C1124.75 221.673 1124.75 221.673 1120.2 195.394C1119.99 194.572 1119.77 193.75 1119.55 192.903C1113.01 168.679 1100.77 147.48 1083.39 129.394C1082.5 128.439 1081.61 127.483 1080.69 126.499C1064.72 109.696 1045.39 98.4478 1023.52 91.1121C1021.68 90.4926 1019.86 89.839 1018.03 89.179C998.379 82.4408 977.461 82.9498 956.956 82.996C952.857 83.0019 948.759 82.9902 944.66 82.9809C937.496 82.9671 930.332 82.9643 923.167 82.9689C912.513 82.9757 901.859 82.9654 891.205 82.9519C871.066 82.9271 850.927 82.9225 830.787 82.9244C815.232 82.9258 799.676 82.9219 784.12 82.9145C781.882 82.9134 779.644 82.9124 777.406 82.9113C775.739 82.9106 775.739 82.9105 774.039 82.9098C772.926 82.9092 771.813 82.9087 770.666 82.9082C769.551 82.9077 768.436 82.9071 767.287 82.9066C735.943 82.892 704.6 82.8837 673.256 82.8883C671.486 82.8886 671.486 82.8886 669.679 82.8889C663.696 82.8898 657.713 82.8907 651.73 82.8917C650.542 82.8919 649.354 82.892 648.13 82.8922C645.727 82.8926 643.325 82.893 640.922 82.8934C603.539 82.8994 566.156 82.8839 528.773 82.8518C486.733 82.8157 444.692 82.7964 402.652 82.8013C398.166 82.8018 393.68 82.8022 389.194 82.8026C388.089 82.8027 386.984 82.8028 385.846 82.8029C369.204 82.8041 352.561 82.7922 335.918 82.7735C316.982 82.7522 298.045 82.7484 279.109 82.7677C268.525 82.778 257.941 82.7747 247.357 82.7512C240.271 82.7369 233.185 82.7411 226.099 82.7597C222.073 82.7697 218.046 82.7724 214.02 82.7523C175.392 82.5732 140.221 90.0988 109.389 114.394Z" fill="#1540E1"/>
<path d="M1123.03 223C1123.36 223 1123.69 223 1124.03 223C1124.04 275.897 1124.06 328.794 1124.08 381.691C1124.08 382.726 1124.08 383.761 1124.08 384.827C1124.11 495.74 1124.14 606.653 1124.16 717.566C1124.16 720.03 1124.16 722.493 1124.16 724.957C1124.17 776.67 1124.17 828.384 1124.18 880.097C1124.18 906.074 1124.19 932.052 1124.19 958.029C1124.19 961.948 1124.19 965.866 1124.19 969.785C1124.2 1030.13 1124.22 1090.47 1124.23 1150.81C1124.23 1152.1 1124.24 1153.4 1124.24 1154.74C1124.24 1175.65 1124.25 1196.57 1124.26 1217.49C1124.28 1277.74 1124.29 1337.99 1124.3 1398.24C1124.3 1399.48 1124.3 1400.71 1124.3 1401.99C1124.31 1429.19 1124.31 1456.39 1124.31 1483.59C1124.31 1494.53 1124.31 1505.47 1124.31 1516.42C1124.31 1517.62 1124.31 1518.81 1124.31 1520.05C1124.32 1558.64 1124.33 1597.23 1124.35 1635.82C1124.37 1674.7 1124.37 1713.57 1124.37 1752.45C1124.37 1757.82 1124.37 1763.19 1124.37 1768.56C1124.37 1769.62 1124.37 1770.67 1124.37 1771.76C1124.37 1788.43 1124.38 1805.1 1124.39 1821.78C1124.4 1838.17 1124.4 1854.57 1124.39 1870.97C1124.39 1880.58 1124.39 1890.19 1124.41 1899.8C1124.42 1906.19 1124.41 1912.58 1124.4 1918.97C1124.4 1922.59 1124.4 1926.21 1124.41 1929.83C1124.46 1944.84 1124.07 1959.26 1121.03 1974C1120.82 1975.02 1120.61 1976.04 1120.4 1977.09C1119.92 1979.31 1119.38 1981.5 1118.78 1983.69C1118.57 1984.46 1118.36 1985.24 1118.14 1986.04C1115.88 1994.06 1112.7 2001.54 1109.03 2009C1108.56 2009.97 1108.56 2009.97 1108.08 2010.95C1101.59 2024.15 1093.14 2035.32 1083.03 2046C1082.16 2046.95 1081.29 2047.89 1080.39 2048.87C1058.11 2072.57 1026.94 2086.58 995.028 2091C994.072 2091.17 993.115 2091.35 992.13 2091.52C986.371 2092.34 980.546 2092.14 974.743 2092.13C973.378 2092.14 972.013 2092.14 970.648 2092.14C966.891 2092.15 963.134 2092.15 959.376 2092.15C955.291 2092.15 951.205 2092.15 947.12 2092.16C939.013 2092.17 930.907 2092.17 922.8 2092.17C913.091 2092.18 903.381 2092.19 893.672 2092.19C870.2 2092.22 846.728 2092.23 823.256 2092.23C812.149 2092.24 801.041 2092.24 789.933 2092.25C751.898 2092.27 713.863 2092.28 675.828 2092.29C673.44 2092.29 671.052 2092.29 668.664 2092.29C666.888 2092.29 666.888 2092.29 665.075 2092.29C659.076 2092.29 653.076 2092.29 647.077 2092.3C645.291 2092.3 645.291 2092.3 643.469 2092.3C604.889 2092.3 566.309 2092.33 527.729 2092.36C486.927 2092.39 446.125 2092.41 405.322 2092.42C400.839 2092.42 396.356 2092.42 391.873 2092.42C390.218 2092.42 390.218 2092.42 388.529 2092.42C370.794 2092.42 353.059 2092.44 335.324 2092.46C317.48 2092.48 299.637 2092.48 281.794 2092.47C271.205 2092.47 260.617 2092.47 250.029 2092.5C242.939 2092.51 235.85 2092.51 228.76 2092.5C224.732 2092.49 220.703 2092.49 216.675 2092.51C176.866 2092.67 140.983 2085.98 109.028 2061C108.477 2060.57 107.926 2060.14 107.358 2059.7C76.5986 2035.37 59.6606 2001.6 52.5089 1963.55C51.8245 1957.07 52.0285 1950.52 52.0285 1944C405.458 1944 758.888 1944 1123.03 1944C1123.03 1376.07 1123.03 808.14 1123.03 223Z" fill="#F9A75A"/>
<path d="M211 1979.24C235.75 1979.24 260.5 1979.24 286 1979.24C286 2003.99 286 2028.74 286 2054.24C261.25 2054.24 236.5 2054.24 211 2054.24C211 2029.49 211 2004.74 211 1979.24Z" fill="white"/>
<path d="M611.937 1983.49C620.743 1991.06 627.143 2001.03 628.238 2012.8C628.559 2025.25 625.161 2035.75 617 2045.24C608.956 2053.66 597.705 2058.24 586.125 2058.67C574.434 2058.31 564.591 2053.52 556.187 2045.51C552.547 2041.52 550.159 2037.16 548 2032.24C547.608 2031.37 547.216 2030.5 546.812 2029.61C543.486 2019.89 544.567 2009.77 548 2000.24C553.558 1989.08 561.463 1981.85 573 1977.24C586.447 1972.75 600.456 1975.1 611.937 1983.49Z" fill="#FEFEFD"/>
<path d="M888 1975.24C892.285 1976.66 895.191 1977.75 898.922 1979.97C899.852 1980.51 900.782 1981.06 901.74 1981.63C902.733 1982.22 903.727 1982.81 904.75 1983.42C906.902 1984.69 909.054 1985.96 911.207 1987.23C912.322 1987.89 913.436 1988.55 914.584 1989.23C920.18 1992.52 925.81 1995.75 931.438 1998.99C941.325 2004.68 951.181 2010.42 961 2016.24C958.506 2019.03 955.748 2020.67 952.496 2022.5C951.375 2023.14 950.255 2023.77 949.1 2024.43C947.879 2025.11 946.658 2025.8 945.438 2026.49C943.539 2027.56 941.641 2028.64 939.743 2029.71C938.441 2030.45 937.138 2031.19 935.836 2031.93C929.243 2035.66 922.683 2039.44 916.125 2043.24C913.992 2044.47 911.859 2045.7 909.727 2046.93C906.259 2048.93 902.795 2050.94 899.336 2052.95C898.057 2053.69 896.779 2054.43 895.5 2055.17C894.458 2055.78 893.417 2056.39 892.344 2057.01C890 2058.24 890 2058.24 888 2058.24C888 2030.85 888 2003.46 888 1975.24Z" fill="#FEFEFD"/>
<path d="M599.625 643.031C601.246 643.016 601.246 643.016 602.9 643C624.869 643.241 645.015 653.136 660.438 668.469C667.682 676.199 672.706 685.159 677.691 694.426C680.707 700.016 683.91 705.491 687.125 710.969C692.07 719.411 696.99 727.867 701.875 736.344C702.497 737.423 703.119 738.503 703.76 739.615C705.023 741.806 706.285 743.996 707.546 746.187C710.674 751.615 713.806 757.042 716.938 762.469C718.188 764.635 719.438 766.802 720.688 768.969C721.306 770.041 721.925 771.114 722.562 772.219C848.188 989.969 848.188 989.969 850.063 993.219C851.312 995.384 852.561 997.549 853.81 999.714C856.95 1005.15 860.087 1010.6 863.223 1016.04C869.245 1026.49 875.284 1036.93 881.375 1047.34C886.797 1056.61 892.14 1065.93 897.457 1075.26C902.658 1084.38 907.918 1093.47 913.221 1102.54C919.375 1113.06 925.461 1123.62 931.546 1134.19C934.674 1139.62 937.806 1145.04 940.938 1150.47C942.188 1152.64 943.438 1154.8 944.688 1156.97C945.616 1158.58 945.616 1158.58 946.562 1160.22C948.438 1163.47 950.312 1166.72 952.188 1169.97C952.807 1171.04 953.426 1172.12 954.064 1173.22C955.309 1175.38 956.553 1177.54 957.797 1179.7C960.995 1185.25 964.205 1190.79 967.434 1196.32C997.342 1247.64 997.342 1247.64 989.875 1277.66C986.562 1289.87 981.446 1301.61 973.438 1311.47C972.771 1312.3 972.105 1313.13 971.418 1313.98C956.878 1331.09 937.082 1340.24 914.975 1342.29C905.603 1342.95 896.169 1342.74 886.78 1342.73C884.187 1342.73 881.594 1342.74 879.001 1342.74C873.386 1342.75 867.77 1342.75 862.154 1342.75C853.802 1342.74 845.451 1342.75 837.1 1342.76C821.314 1342.77 805.529 1342.77 789.744 1342.77C777.553 1342.77 765.363 1342.77 753.172 1342.78C751.419 1342.78 749.665 1342.78 747.911 1342.78C745.268 1342.78 742.625 1342.78 739.983 1342.78C715.425 1342.79 690.867 1342.79 666.309 1342.79C665.384 1342.79 664.459 1342.79 663.506 1342.79C658.819 1342.79 654.131 1342.79 649.443 1342.79C648.512 1342.79 647.581 1342.79 646.622 1342.78C644.739 1342.78 642.857 1342.78 640.974 1342.78C611.675 1342.78 582.376 1342.79 553.076 1342.8C520.132 1342.83 487.189 1342.84 454.245 1342.83C450.731 1342.83 447.217 1342.83 443.703 1342.83C442.838 1342.83 441.972 1342.83 441.081 1342.83C428.035 1342.83 414.989 1342.84 401.943 1342.85C387.104 1342.86 372.266 1342.86 357.427 1342.85C349.129 1342.84 340.832 1342.84 332.535 1342.86C326.33 1342.87 320.126 1342.86 313.922 1342.85C311.419 1342.84 308.916 1342.85 306.412 1342.85C279.214 1342.94 255.345 1339.31 234.711 1319.74C218.505 1303.54 209.276 1283.28 209 1260.22C209.121 1243.85 213.455 1230.65 221.438 1216.47C222 1215.46 222.563 1214.46 223.144 1213.42C231.252 1199.01 239.595 1184.73 247.945 1170.45C253.522 1160.91 259.03 1151.33 264.546 1141.75C267.674 1136.32 270.806 1130.9 273.938 1125.47C275.188 1123.3 276.438 1121.14 277.688 1118.97C310.188 1062.64 342.688 1006.3 375.188 949.969C375.806 948.896 376.425 947.823 377.063 946.718C378.312 944.553 379.561 942.388 380.81 940.223C383.95 934.783 387.087 929.341 390.223 923.898C396.245 913.447 402.284 903.006 408.375 892.594C413.45 883.916 418.46 875.203 423.438 866.469C428.978 856.748 434.571 847.06 440.221 837.402C446.375 826.878 452.461 816.315 458.546 805.751C461.674 800.322 464.806 794.896 467.938 789.469C469.188 787.302 470.438 785.135 471.688 782.969C482.938 763.469 482.938 763.469 494.188 743.969C495.116 742.36 495.116 742.36 496.063 740.718C497.311 738.554 498.56 736.391 499.808 734.228C503.599 727.659 507.384 721.087 511.165 714.512C513.041 711.257 514.924 708.005 516.809 704.754C519.185 700.653 521.528 696.536 523.848 692.402C530.013 681.521 536.256 672.013 545.438 663.469C546.631 662.341 546.631 662.341 547.848 661.191C562.493 648.453 580.552 643.182 599.625 643.031Z" fill="#7BFF85"/>
<path d="M599.625 643.031C601.246 643.016 601.246 643.016 602.9 643C624.869 643.241 645.015 653.136 660.438 668.469C667.682 676.199 672.706 685.159 677.691 694.426C680.707 700.016 683.91 705.491 687.125 710.969C692.07 719.411 696.99 727.867 701.875 736.344C702.497 737.423 703.119 738.503 703.76 739.615C705.023 741.806 706.285 743.996 707.546 746.187C710.674 751.615 713.806 757.042 716.938 762.469C718.188 764.635 719.438 766.802 720.688 768.969C721.306 770.041 721.925 771.114 722.562 772.219C848.188 989.969 848.188 989.969 850.063 993.219C851.312 995.384 852.561 997.549 853.81 999.714C856.95 1005.15 860.087 1010.6 863.223 1016.04C869.245 1026.49 875.284 1036.93 881.375 1047.34C886.797 1056.61 892.14 1065.93 897.457 1075.26C902.658 1084.38 907.918 1093.47 913.221 1102.54C919.375 1113.06 925.461 1123.62 931.546 1134.19C934.674 1139.62 937.806 1145.04 940.938 1150.47C942.188 1152.64 943.438 1154.8 944.688 1156.97C945.616 1158.58 945.616 1158.58 946.562 1160.22C948.438 1163.47 950.312 1166.72 952.188 1169.97C952.807 1171.04 953.426 1172.12 954.064 1173.22C955.309 1175.38 956.553 1177.54 957.797 1179.7C960.995 1185.25 964.205 1190.79 967.434 1196.32C997.342 1247.64 997.342 1247.64 989.875 1277.66C986.562 1289.87 981.446 1301.61 973.438 1311.47C972.771 1312.3 972.105 1313.13 971.418 1313.98C956.878 1331.09 937.082 1340.24 914.975 1342.29C905.603 1342.95 896.169 1342.74 886.78 1342.73C884.187 1342.73 881.594 1342.74 879.001 1342.74C873.386 1342.75 867.77 1342.75 862.154 1342.75C853.802 1342.74 845.451 1342.75 837.1 1342.76C821.314 1342.77 805.529 1342.77 789.744 1342.77C777.553 1342.77 765.363 1342.77 753.172 1342.78C751.419 1342.78 749.665 1342.78 747.911 1342.78C745.268 1342.78 742.625 1342.78 739.983 1342.78C715.425 1342.79 690.867 1342.79 666.309 1342.79C665.384 1342.79 664.459 1342.79 663.506 1342.79C658.819 1342.79 654.131 1342.79 649.443 1342.79C648.512 1342.79 647.581 1342.79 646.622 1342.78C644.739 1342.78 642.857 1342.78 640.974 1342.78C611.675 1342.78 582.376 1342.79 553.076 1342.8C520.132 1342.83 487.189 1342.84 454.245 1342.83C450.731 1342.83 447.217 1342.83 443.703 1342.83C442.838 1342.83 441.972 1342.83 441.081 1342.83C428.035 1342.83 414.989 1342.84 401.943 1342.85C387.104 1342.86 372.266 1342.86 357.427 1342.85C349.129 1342.84 340.832 1342.84 332.535 1342.86C326.33 1342.87 320.126 1342.86 313.922 1342.85C311.419 1342.84 308.916 1342.85 306.412 1342.85C279.214 1342.94 255.345 1339.31 234.711 1319.74C218.505 1303.54 209.276 1283.28 209 1260.22C209.121 1243.85 213.455 1230.65 221.438 1216.47C222 1215.46 222.563 1214.46 223.144 1213.42C231.252 1199.01 239.595 1184.73 247.945 1170.45C253.522 1160.91 259.03 1151.33 264.546 1141.75C267.674 1136.32 270.806 1130.9 273.938 1125.47C275.188 1123.3 276.438 1121.14 277.688 1118.97C310.188 1062.64 342.688 1006.3 375.188 949.969C375.806 948.896 376.425 947.823 377.063 946.718C378.312 944.553 379.561 942.388 380.81 940.223C383.95 934.783 387.087 929.341 390.223 923.898C396.245 913.447 402.284 903.006 408.375 892.594C413.45 883.916 418.46 875.203 423.438 866.469C428.978 856.748 434.571 847.06 440.221 837.402C446.375 826.878 452.461 816.315 458.546 805.751C461.674 800.322 464.806 794.896 467.938 789.469C469.188 787.302 470.438 785.135 471.688 782.969C482.938 763.469 482.938 763.469 494.188 743.969C495.116 742.36 495.116 742.36 496.063 740.718C497.311 738.554 498.56 736.391 499.808 734.228C503.599 727.659 507.384 721.087 511.165 714.512C513.041 711.257 514.924 708.005 516.809 704.754C519.185 700.653 521.528 696.536 523.848 692.402C530.013 681.521 536.256 672.013 545.438 663.469C546.631 662.341 546.631 662.341 547.848 661.191C562.493 648.453 580.552 643.182 599.625 643.031ZM549.574 758.516C545.514 763.334 542.576 768.805 539.5 774.281C538.508 776.025 537.515 777.768 536.522 779.511C535.499 781.31 534.478 783.111 533.458 784.913C530.317 790.45 527.124 795.958 523.938 801.469C522.687 803.635 521.437 805.802 520.188 807.969C497.688 846.969 475.188 885.969 452.688 924.969C452.069 926.041 451.45 927.114 450.812 928.219C449.563 930.384 448.314 932.549 447.065 934.714C443.925 940.155 440.788 945.596 437.652 951.039C431.63 961.491 425.591 971.932 419.5 982.344C414.425 991.021 409.415 999.735 404.438 1008.47C398.897 1018.19 393.304 1027.88 387.654 1037.54C381.5 1048.06 375.414 1058.62 369.329 1069.19C366.201 1074.62 363.069 1080.04 359.938 1085.47C358.687 1087.64 357.437 1089.8 356.188 1091.97C348.688 1104.97 341.188 1117.97 333.688 1130.97C333.068 1132.04 332.449 1133.12 331.811 1134.22C330.565 1136.38 329.32 1138.54 328.073 1140.7C324.884 1146.23 321.696 1151.75 318.512 1157.29C317.866 1158.41 317.221 1159.53 316.556 1160.68C315.282 1162.89 314.008 1165.1 312.735 1167.32C309.55 1172.84 306.326 1178.34 303.04 1183.81C299.242 1190.16 295.595 1196.35 293.438 1203.47C293.216 1204.18 292.994 1204.89 292.766 1205.62C288.132 1223.91 291.947 1242.5 301.224 1258.55C306.762 1267.29 314.588 1274.21 323.438 1279.47C324.226 1279.94 325.015 1280.41 325.828 1280.89C338.962 1288.08 352.639 1287.91 367.172 1287.86C369.267 1287.87 371.361 1287.87 373.456 1287.88C379.185 1287.9 384.915 1287.9 390.645 1287.89C396.835 1287.89 403.024 1287.9 409.214 1287.91C421.331 1287.94 433.447 1287.94 445.564 1287.94C455.415 1287.94 465.266 1287.94 475.117 1287.95C476.535 1287.95 477.952 1287.95 479.37 1287.95C480.073 1287.95 480.777 1287.95 481.502 1287.95C482.207 1287.95 482.912 1287.95 483.638 1287.95C484.344 1287.95 485.05 1287.96 485.778 1287.96C505.628 1287.97 525.479 1287.98 545.329 1287.97C546.077 1287.97 546.825 1287.97 547.595 1287.97C551.384 1287.97 555.174 1287.97 558.963 1287.97C560.092 1287.97 560.092 1287.97 561.243 1287.97C562.765 1287.97 564.287 1287.97 565.809 1287.97C589.482 1287.96 613.155 1287.98 636.828 1288.01C663.451 1288.05 690.075 1288.07 716.698 1288.06C719.539 1288.06 722.381 1288.06 725.222 1288.06C725.922 1288.06 726.621 1288.06 727.342 1288.06C737.881 1288.06 748.419 1288.07 758.958 1288.09C770.951 1288.11 782.943 1288.11 794.936 1288.09C801.05 1288.09 807.165 1288.08 813.279 1288.11C818.885 1288.12 824.491 1288.12 830.097 1288.1C832.116 1288.09 834.136 1288.1 836.155 1288.11C857.352 1288.24 875.293 1283.86 891.184 1268.86C896.863 1262.84 901.05 1255.99 904.438 1248.47C904.974 1247.36 905.51 1246.24 906.062 1245.09C912.136 1229.08 910.558 1211.22 903.929 1195.69C901.468 1190.38 898.543 1185.38 895.562 1180.34C894.563 1178.63 893.564 1176.92 892.565 1175.21C891.537 1173.46 890.505 1171.7 889.474 1169.94C886.262 1164.47 883.103 1158.97 879.938 1153.47C878.688 1151.3 877.438 1149.14 876.188 1146.97C793.688 1003.97 793.688 1003.97 791.812 1000.72C790.563 998.553 789.314 996.388 788.065 994.223C784.925 988.783 781.788 983.341 778.652 977.898C772.63 967.447 766.591 957.006 760.5 946.594C755.078 937.324 749.735 928.01 744.418 918.68C739.217 909.556 733.957 900.467 728.654 891.402C722.5 880.878 716.414 870.315 710.329 859.751C707.201 854.322 704.069 848.896 700.938 843.469C699.687 841.302 698.437 839.135 697.188 836.969C696.569 835.896 695.95 834.824 695.312 833.719C689.688 823.969 689.688 823.969 687.811 820.716C686.566 818.558 685.321 816.401 684.076 814.243C680.872 808.692 677.672 803.138 674.477 797.582C671.345 792.137 668.204 786.698 665.055 781.264C664.051 779.53 663.051 777.794 662.055 776.057C650.671 756.206 637.863 742.751 615.477 736.25C590.515 729.833 566.443 740.029 549.574 758.516Z" fill="#FEFEFE"/>
<path d="M619.438 811.469C628.834 817.021 635.575 825.912 638.438 836.469C638.853 840.15 638.847 843.798 638.825 847.5C638.831 848.59 638.836 849.68 638.842 850.803C638.856 854.445 638.849 858.086 638.842 861.728C638.848 864.343 638.854 866.959 638.863 869.574C638.88 875.935 638.881 882.295 638.875 888.655C638.871 893.827 638.873 898.999 638.878 904.171C638.879 904.908 638.88 905.645 638.88 906.404C638.882 907.902 638.883 909.399 638.885 910.897C638.899 924.93 638.893 938.963 638.882 952.996C638.872 965.821 638.885 978.647 638.909 991.472C638.933 1004.66 638.943 1017.84 638.936 1031.02C638.933 1038.42 638.935 1045.81 638.952 1053.21C638.969 1060.16 638.964 1067.12 638.945 1074.07C638.941 1076.62 638.944 1079.18 638.955 1081.73C638.968 1085.21 638.957 1088.7 638.939 1092.18C638.953 1093.69 638.953 1093.69 638.968 1095.23C638.855 1106.1 634.833 1114.59 627.438 1122.47C624.933 1124.81 622.368 1126.7 619.438 1128.47C618.757 1128.88 618.077 1129.3 617.375 1129.72C608.649 1134.07 596.87 1133.99 587.492 1131.77C585.271 1130.85 583.42 1129.83 581.438 1128.47C580.747 1128.02 580.056 1127.57 579.344 1127.11C569.54 1120.29 563.824 1111.19 561.438 1099.47C561.152 1095.92 561.159 1092.39 561.17 1088.83C561.166 1087.77 561.161 1086.71 561.157 1085.62C561.144 1082.07 561.146 1078.53 561.147 1074.98C561.141 1072.44 561.134 1069.89 561.127 1067.35C561.111 1061.16 561.105 1054.96 561.104 1048.77C561.103 1043.74 561.099 1038.7 561.092 1033.67C561.075 1019.37 561.065 1005.08 561.067 990.794C561.067 990.024 561.067 989.254 561.067 988.461C561.067 987.69 561.067 986.919 561.067 986.125C561.068 973.64 561.049 961.155 561.021 948.669C560.992 935.835 560.978 923.001 560.98 910.168C560.981 902.968 560.975 895.768 560.954 888.569C560.934 881.795 560.934 875.023 560.949 868.249C560.951 865.767 560.946 863.285 560.934 860.803C560.919 857.407 560.928 854.011 560.943 850.615C560.933 849.64 560.923 848.665 560.912 847.661C561.027 836.086 565.48 826.094 573.18 817.531C585.707 805.472 604.092 803.93 619.438 811.469Z" fill="#FEFFFE"/>
<path d="M617.309 1164.15C627.581 1170.5 635.135 1178.56 638.438 1190.47C638.855 1193.9 638.882 1197.29 638.871 1200.74C638.876 1201.71 638.882 1202.67 638.887 1203.66C638.894 1205.69 638.892 1207.72 638.884 1209.75C638.875 1212.83 638.904 1215.91 638.936 1218.98C638.937 1220.97 638.937 1222.95 638.934 1224.93C638.945 1225.84 638.956 1226.74 638.968 1227.68C638.854 1238.33 634.648 1246.77 627.438 1254.47C618.677 1262.8 608.706 1265.08 596.935 1264.94C591.051 1264.71 586.396 1263.8 581.438 1260.47C580.745 1260.02 580.053 1259.57 579.34 1259.11C569.41 1252.19 563.756 1243.33 561.438 1231.47C561.158 1228.58 561.11 1225.7 561.102 1222.8C561.095 1221.99 561.088 1221.19 561.082 1220.36C561.071 1218.67 561.067 1216.98 561.067 1215.29C561.063 1212.74 561.026 1210.19 560.988 1207.64C560.893 1193.92 562.686 1182.82 572.438 1172.47C583.7 1161.08 602.521 1156.77 617.309 1164.15Z" fill="#FEFFFE"/>
<path d="M609.312 120.607C616.468 126.613 622.766 133.83 624.5 143.295C625.254 156.436 624.554 167.045 615.5 177.295C614.974 177.914 614.448 178.532 613.906 179.17C607.849 185.798 599.971 189.923 590.996 190.533C579.106 190.86 569.855 189.101 560.496 181.193C552.653 173.734 547.346 163.648 547 152.67C547.681 140.334 552.475 130.454 561.375 121.932C575.74 110.867 594.585 109.691 609.312 120.607Z" fill="#1641DF"/>
</svg>
