<svg width="285" height="370" viewBox="0 0 285 370" fill="none" xmlns="http://www.w3.org/2000/svg">
<g clip-path="url(#clip0_0_1)">
<path d="M241.521 83.5956L200.421 219.487L89.0547 184.718L130.154 48.8265L241.521 83.5956ZM221.532 93.7814L141.534 68.8988L139.625 68.3056L139.047 70.2205L114.679 151.092L114.102 153.007L116.012 153.6L196.01 178.483L197.919 179.077L198.497 177.162L222.865 96.2905L223.442 94.3756L221.532 93.7814Z" fill="#9F9F9F" stroke="#D9D9D9" stroke-width="4"/>
<path d="M138.34 69.1001L221.282 95.3702L197.603 179.159L114.662 152.889L138.34 69.1001Z" fill="#D9D9D9"/>
<path d="M202.932 133.013C203.634 133.078 203.634 133.078 204.35 133.145C204.709 133.182 204.821 133.385 205.074 133.894C205.619 136.225 205.578 136.283 205.048 138.356C204.901 138.941 204.695 139.631 204.544 140.234C204.426 140.679 203.696 143.382 203.575 143.841C202.562 141.803 201.909 139.874 200.896 137.836C200.564 137.169 200.389 136.817 199.882 135.798C199.882 135.798 199.736 134.887 199.591 133.977C200.743 132.591 201.419 132.865 202.932 133.013Z" fill="#C2C2C2"/>
<path d="M152.062 104.834C152.854 104.616 152.117 109.127 151.339 111.472C150.296 114.826 149.683 118.361 150.637 121.644C151.051 123.069 154.969 122.12 156.314 122.251C155.016 122.726 152.757 124.153 151.574 124.754C150.479 125.277 150.479 125.277 150.16 126.898C150.66 126.535 151.16 126.172 151.675 125.798C155.649 123.358 159.694 121.067 163.807 118.898C164.157 118.711 164.507 118.524 164.868 118.332C166.497 117.483 167.941 116.834 169.705 116.331C172.336 115.333 173.656 113.323 175.456 111.165C177.255 109.433 178.696 108.853 180.987 108.026C183.452 121.961 183.452 121.961 181.021 129.497C180.462 131.664 180.641 133.126 181.143 135.256C178.331 136.329 176.251 135.183 172.933 135.918C170.207 136.521 169.976 136.761 165.905 137.108C164.532 137.225 163.155 137.244 161.781 137.315C161.356 137.333 160.931 137.35 160.494 137.368C158.509 137.472 157.488 137.529 155.806 138.749C155.519 141.02 155.728 142.443 156.884 144.31C157.876 146.01 157.876 146.01 157.757 147.291C157.571 147.703 157.571 147.703 157.381 148.123C155.548 148.779 153.831 148.832 151.915 148.894C151.402 148.912 151.402 148.912 150.88 148.93C149.755 148.969 148.63 149.004 147.505 149.038C146.724 149.064 145.942 149.091 145.161 149.117C143.107 149.186 141.053 149.252 138.999 149.317C136.902 149.384 134.805 149.454 132.708 149.524C128.596 149.66 123.981 149.711 119.869 149.842C120.507 147.867 120.949 145.669 121.543 143.551C121.681 143.056 121.818 142.56 121.96 142.049C122.108 141.524 122.256 140.999 122.409 140.459C122.723 139.33 123.038 138.2 123.352 137.071C123.514 136.492 123.676 135.913 123.843 135.317C124.33 133.568 124.809 131.817 125.285 130.064C125.438 129.502 125.591 128.94 125.749 128.36C126.04 127.29 126.33 126.219 126.62 125.148C127.45 122.108 128.338 119.095 129.306 116.095C129.869 116.221 130.432 116.347 131.012 116.476C131.369 116.556 131.726 116.636 132.095 116.718C132.851 116.887 133.607 117.056 134.364 117.225C134.904 117.345 134.904 117.345 135.455 117.468C136.79 117.767 138.665 118.238 140.216 118.272C138.519 117.328 136.277 116.785 134.549 116.133C134.546 115.614 134.373 115.407 134.37 114.873C135.522 113.73 136.65 112.72 137.902 111.707C138.261 111.414 138.621 111.122 138.992 110.82C142.639 107.973 147.376 106.129 152.062 104.834Z" fill="#C2C2C2"/>
<path d="M193.743 135.19C194.474 135.213 194.474 135.213 195.218 135.236C196.405 135.275 197.59 135.334 198.776 135.397C200.047 138.165 201.318 140.934 202.627 143.787C202.293 143.786 201.958 143.786 201.613 143.785C201.999 144.061 201.999 144.061 202.392 144.343C203.096 145.36 203.096 145.36 202.937 146.933C202.474 149.407 201.724 151.794 200.981 154.197C200.834 154.677 200.688 155.156 200.537 155.65C200.091 157.108 199.642 158.565 199.192 160.022C198.929 160.879 198.665 161.735 198.401 162.591C197.948 164.063 197.492 165.534 197.035 167.005C196.461 168.864 195.865 171.58 195.307 173.444C192.021 172.36 188.609 171.493 185.223 170.409C184.151 170.073 183.08 169.737 182.008 169.402C181.463 169.23 180.918 169.058 180.357 168.88C178.256 168.222 176.149 167.585 174.042 166.948C169.557 165.591 165.099 164.175 160.66 162.677C157.048 161.472 153.394 160.428 149.727 159.405C147.454 158.77 145.212 158.109 142.995 157.295C143.36 156.287 143.36 156.287 144.059 155.201C148.252 153.703 153.137 153.989 157.491 153.917C165.959 153.96 165.959 153.96 174.053 151.591C174.728 150.39 174.728 150.39 174.623 148.972C173.791 147.599 173.791 147.599 172.564 146.349C168.213 141.567 167.803 142.439 168.899 140.77C169.26 140.219 171.085 139.336 172.793 139.342C173.385 139.335 174.095 139.491 174.705 139.484C175.945 139.474 177.151 139.535 178.39 139.545C182.106 139.482 184.014 138.411 186.993 136.073C189.125 134.768 191.369 135.052 193.743 135.19Z" fill="#C2C2C2"/>
<path d="M163.228 96.9411C165.015 98.8076 166.407 100.956 167.852 103.108C168.906 104.662 169.973 106.121 171.263 107.469C172.067 107.017 172.871 106.565 173.699 106.1C174.336 107.595 175.079 109.268 174.909 109.651C173.454 112.922 170.964 114.676 167.772 115.894C165.996 116.572 164.938 116.871 162.873 118.159C157.25 121.666 154.869 121.816 152.235 121.456C151.727 121.387 151.344 120.649 151.221 119.418C150.866 115.845 151.667 113.846 152.287 111.234C152.775 109.029 152.954 106.801 153.153 104.563C153.486 104.519 153.813 104.315 154.156 104.271C154.985 105.058 155.79 106.042 156.571 106.88C158.619 109.077 160.454 111.019 163.449 111.64C163.422 110.776 163.422 110.776 163.395 109.895C163.267 105.578 163.168 101.268 163.228 96.9411Z" fill="#ABABAB"/>
<path d="M182.43 108.51C183.535 109.914 184.478 111.345 185.357 112.913C185.695 113.509 185.695 113.509 186.04 114.118C186.551 115.158 186.551 115.158 186.561 116.205C187.396 115.999 188.231 115.794 189.091 115.582C189.218 116.008 189.345 116.434 189.476 116.872C191.012 121.933 192.533 126.857 195.222 131.362C195.222 131.362 195.729 132.381 195.982 132.89C193.971 133.056 189.054 132.538 186.927 133.198C185.944 133.279 184.438 133.748 184.438 133.748C183.14 134.224 182.679 134.689 182.167 134.185C181.86 131.633 182.321 129.907 183.181 127.467C184.517 123.096 183.831 119.209 183.154 114.834C182.937 113.395 182.783 111.95 182.639 110.498C182.57 109.842 182.501 109.186 182.43 108.51Z" fill="#ABABAB"/>
<path d="M161.644 97.7788C161.845 97.486 162.284 96.7518 162.731 96.8861C162.845 100.82 162.929 107.777 162.898 110.801C158.313 108.988 157.301 107.302 155.817 105.204C156.754 104.619 156.599 105.006 157.255 103.509C157.458 103.046 157.661 102.583 157.87 102.107C158.98 99.5734 158.083 101.12 160.679 100.168C161.009 99.8078 161.355 98.1992 161.644 97.7788Z" fill="#C2C2C2"/>
<path d="M100.938 114.948C99.7084 118.678 88.1091 158.542 80.1538 184.943C79.033 188.662 80.2589 191.773 84.1173 192.973C112.753 201.88 152.351 214.197 152.351 214.197C149.492 214.807 152.351 214.197 149.492 214.807C148.551 215.071 148.551 215.071 147.59 215.341C146.571 215.622 146.571 215.622 145.532 215.909C144.083 216.315 142.633 216.721 141.184 217.127C140.442 217.334 139.7 217.54 138.936 217.753C135.55 218.699 132.171 219.664 128.792 220.628C127.469 221.005 126.146 221.381 124.824 221.758C123.842 222.037 123.842 222.037 122.84 222.322C116.888 224.016 116.888 224.016 114.9 224.582C113.589 224.955 112.278 225.328 110.966 225.701C107.487 226.692 104.008 227.681 100.528 228.669C99.7999 228.876 99.0723 229.083 98.3227 229.296C96.9226 229.693 95.5224 230.091 94.1222 230.488C93.4943 230.666 92.8664 230.845 92.2195 231.029C91.666 231.186 91.1124 231.343 90.5421 231.505C89.3975 231.838 88.2612 232.197 87.1283 232.564C83.4227 233.003 81.4019 232.248 78.3678 230.403C75.2088 227.951 74.4079 225.065 73.3122 221.458C73.1397 220.906 72.9671 220.354 72.7893 219.785C72.4185 218.598 72.0501 217.41 71.6839 216.221C71.1175 214.385 70.5433 212.551 69.9665 210.718C68.3586 205.606 66.7618 200.491 65.1739 195.373C63.1944 189.006 61.1641 182.663 58.9919 176.353C57.7329 172.667 56.6558 168.95 55.6127 165.203C54.7989 162.366 53.8314 159.578 52.8689 156.785C46.497 138.148 46.497 138.148 49.2008 132.92C52.9393 128.829 56.612 127.809 61.9965 126.452C66.9186 125.182 71.7648 123.83 76.5821 122.233C79.5322 121.278 82.5194 120.457 85.5144 119.639C86.6668 119.323 87.819 119.006 88.9711 118.688C89.8078 118.458 89.8078 118.458 90.6614 118.224C93.002 117.567 95.3287 116.869 97.6543 116.165C98.4648 115.92 98.6234 115.797 100.938 114.948Z" fill="#9F9F9F"/>
<path d="M44.764 274.032C52.4221 274.032 52.4221 273.661 53.8371 275.459C54.3671 276.463 54.3671 276.463 54.9078 277.488C55.329 278.238 55.7508 278.988 56.1732 279.737C56.4989 280.349 56.4989 280.349 56.8311 280.972C57.8911 282.897 59.0711 284.75 60.2505 286.611C61.6124 288.767 62.9508 290.935 64.294 293.101C64.2748 287.102 64.294 280.551 64.294 274.032C66.0719 274.032 68.5233 274.032 70.355 274.032C70.355 283.261 70.355 292.491 70.355 302C67.6882 302 65.0213 302 62.2737 302C61.6729 300.996 61.0722 299.992 60.4532 298.958C59.657 297.628 58.8608 296.298 58.0646 294.968C57.6696 294.308 57.2746 293.648 56.8676 292.968C56.4813 292.323 56.095 291.678 55.697 291.013C55.3443 290.424 54.9917 289.834 54.6283 289.227C53.3659 287.126 52.095 285.028 50.825 282.931C50.825 289.227 50.825 295.669 50.825 302C49.0471 302 46.5958 302 44.764 302C44.764 292.77 44.764 283.541 44.764 274.032Z" fill="#7A7A7A"/>
<path fill-rule="evenodd" clip-rule="evenodd" d="M87.0876 302C94.4068 302 99.8832 295.732 99.8832 288C99.8832 280.268 94.4068 274 87.0876 274C79.7685 274 74.2921 280.268 74.2921 288C74.2921 295.732 79.7685 302 87.0876 302ZM87.0876 296.5C82.4591 296.5 79.7056 292.703 79.7056 288C79.7056 283.297 82.4591 279.5 87.0876 279.5C91.7162 279.5 94.4697 283.297 94.4697 288C94.4697 292.703 91.7162 296.5 87.0876 296.5Z" fill="#7A7A7A"/>
<path d="M132.516 274.528C136.614 274.528 140.238 274.005 141.223 276.505C142.207 279.005 142.207 279.005 143.191 281.505C143.6 282.543 143.683 282.505 144.667 285.505C145.652 288.505 145.652 288.505 147.128 293.505C147.314 294.135 148.915 294.121 149.097 293.505C150.573 288.505 150.573 288.505 151.557 285.505C152.05 284.005 152.05 284.005 153.034 281.505C154.215 278.505 154.018 279.005 155.002 276.505C155.987 274.005 159.432 274.505 164.013 274.528C164.013 283.228 163.861 292.541 163.861 301.505C161.87 301.505 159.022 301.505 156.971 301.505C156.971 295.505 156.971 288.505 156.971 282.505C155.154 287.899 154.018 292.505 151.065 300.505C149.075 300.505 146.226 300.505 144.175 300.505C142.185 294.435 140.32 288.759 138.27 282.505C138.27 288.505 138.27 295.005 138.27 301.505C136.501 301.505 134.339 301.505 132.516 301.505C132.516 292.603 132.516 283.7 132.516 274.528Z" fill="#7B7B7B"/>
<path fill-rule="evenodd" clip-rule="evenodd" d="M184.531 274.505H176.656C176.604 274.644 176.562 274.756 176.519 274.868C176.107 275.954 175.687 277.036 166.322 301.492C167.343 301.492 168.459 301.496 169.567 301.499C170.659 301.502 171.743 301.505 172.719 301.505C173.688 298.881 174.021 297.979 174.414 297.103C174.619 296.645 174.841 296.193 175.18 295.505H185.023C185.361 296.193 185.583 296.645 185.789 297.103C186.182 297.979 186.515 298.881 187.483 301.505C187.483 301.505 190.39 301.514 190.928 301.492C191.158 301.495 191.416 301.5 191.689 301.506C192.583 301.524 193.633 301.544 194.373 301.505C187.483 282.005 184.531 274.505 184.531 274.505ZM179.609 280.005H181.578L184.531 291.505H176.656L179.609 280.005Z" fill="#797979"/>
<path d="M210.778 274.476C211.654 274.467 212.364 274.48 213.266 274.476C214.261 274.471 217.744 274.959 219.237 275.442C218.74 276.891 218.2 278.339 217.744 279.79C216.252 279.307 215.256 279.307 214.261 279.307C208.29 279.307 206.34 279.307 205.305 280.273C202.214 283.155 202.367 284.338 202.319 287.519C202.308 288.259 202.331 289.172 202.319 289.934C202.319 292.35 203.42 293.604 205.228 295.066C206.612 296.184 207.963 296.215 209.783 296.215C210.56 296.215 211.143 296.215 211.773 296.215C212.532 296.215 213.779 296.177 214.261 296.215C214.261 294.405 214.261 292.665 214.261 290.8C212.493 290.8 209.729 290.8 207.907 290.8C207.907 289.191 207.907 287.583 207.907 285.925C211.886 285.925 215.865 285.925 219.964 285.925C219.964 290.55 219.964 295.175 219.964 299.94C214.663 301.318 208.533 302.32 203.177 300.436C199.406 298.319 197.368 296.758 196.19 292.381C195.034 288.082 194.738 283.082 197.585 279.682C201.122 275.458 205.082 274.501 210.778 274.476Z" fill="#7C7C7C"/>
<path d="M225.87 274.473C231.336 274.473 236.971 274.473 242.603 274.473C242.603 276.086 242.603 277.57 242.603 279.233C239.105 279.233 235.928 279.233 232.325 279.233C232.325 281.047 232.325 282.862 232.325 284.732C235.604 284.732 239.224 284.732 242.603 284.732C242.603 286.345 242.603 287.7 242.603 289.362C239.323 289.362 235.703 289.362 232.325 289.362C232.325 291.58 232.325 293.858 232.325 296.144C235.822 296.144 238.999 296.144 242.603 296.144C242.603 297.757 242.603 299.81 242.603 301.473C237.137 301.473 231.501 301.473 225.87 301.473C225.87 292.6 225.87 283.614 225.87 274.473Z" fill="#7C7C7C"/>
<path d="M114.647 274.505C119.02 274.505 122.938 274.505 127.443 274.505C127.443 275.748 127.443 277.337 127.443 278.618C127.443 278.618 127.443 278.618 123.998 279.613C123.998 286.081 123.998 291.554 123.998 297.525C127.443 298.52 127.443 298.52 127.443 298.52C127.443 299.556 127.443 300.438 127.443 301.505C123.07 301.505 119.152 301.505 114.647 301.505C114.647 300.47 114.647 299.421 114.647 298.354C114.647 298.354 114.647 298.354 118.092 297.525C118.092 291.554 118.092 286.081 118.092 279.613C114.647 278.618 114.647 278.618 114.647 278.618C114.647 277.375 114.647 275.786 114.647 274.505Z" fill="#7D7D7D"/>
</g>
<path d="M236.447 317C241.913 317 247.549 317 253.18 317C253.18 318.613 253.18 320.098 253.18 321.76C249.682 321.76 246.506 321.76 242.902 321.76C242.902 323.575 242.902 325.39 242.902 327.26C246.181 327.26 249.801 327.26 253.18 327.26C253.18 328.873 253.18 330.227 253.18 331.889C249.9 331.889 246.28 331.889 242.902 331.889C242.902 334.107 242.902 336.386 242.902 338.671C246.4 338.671 249.576 338.671 253.18 338.671C253.18 340.284 253.18 342.338 253.18 344C247.714 344 242.078 344 236.447 344C236.447 335.127 236.447 326.141 236.447 317Z" fill="#7C7C7C"/>
<path d="M135.067 317.133C137.035 317.133 138.946 317.133 140.973 317.133C140.973 324.625 140.973 331.913 140.973 339.633C144.908 339.633 148.73 339.633 152.784 339.633C152.784 341.09 152.784 342.632 152.784 344.133C146.881 344.133 141.149 344.133 135.067 344.133C135.067 335.183 135.067 326.353 135.067 317.133Z" fill="#767676"/>
<path fill-rule="evenodd" clip-rule="evenodd" d="M189.202 317.011C190.355 316.992 192.077 317.002 193.812 317.011C195.573 317.021 197.347 317.031 198.553 317.011C205.935 317.011 208.395 319.511 208.888 323.011C209.38 326.511 206.919 330.489 204.458 330.5C206.919 330.5 209.611 333.6 208.888 338.011C208.395 341.011 205.935 344.011 199.045 344.011H189.202V317.011ZM199.537 321H193.631V328H199.537C202.151 328 203.966 327.156 203.966 324.5C203.966 321.844 202.151 321 199.537 321ZM193.631 333V340H199.537C202.151 340 203.966 339.156 203.966 336.5C203.966 333.844 202.151 333.011 199.537 333.011L193.631 333Z" fill="#787878"/>
<path fill-rule="evenodd" clip-rule="evenodd" d="M174.93 317.133H167.056C167.004 317.271 166.961 317.383 166.919 317.496C166.507 318.581 166.087 319.664 156.721 344.12C157.742 344.12 158.859 344.123 159.967 344.126C161.059 344.129 162.142 344.133 163.119 344.133C164.087 341.509 164.421 340.606 164.813 339.731C165.019 339.272 165.241 338.821 165.58 338.133H175.422C175.761 338.821 175.983 339.272 176.189 339.731C176.581 340.606 176.914 341.509 177.883 344.133C177.883 344.133 180.79 344.142 181.328 344.12C181.558 344.123 181.816 344.128 182.088 344.133C182.982 344.151 184.033 344.172 184.773 344.133C177.883 324.633 174.93 317.133 174.93 317.133ZM170.009 322.633H171.977L174.93 334.133H167.056L170.009 322.633Z" fill="#797979"/>
<path d="M213.809 317.133C215.776 317.133 217.687 317.133 219.715 317.133C219.715 324.625 219.715 331.913 219.715 339.633C223.65 339.633 227.471 339.633 231.526 339.633C231.526 341.09 231.526 342.632 231.526 344.133C225.623 344.133 219.891 344.133 213.809 344.133C213.809 335.183 213.809 326.353 213.809 317.133Z" fill="#767676"/>
<path d="M117.35 317.133C121.723 317.133 125.641 317.133 130.146 317.133C130.146 318.375 130.146 319.965 130.146 321.245C130.146 321.245 130.146 321.245 126.701 322.24C126.701 328.708 126.701 334.182 126.701 340.152C130.146 341.147 130.146 341.147 130.146 341.147C130.146 342.183 130.146 343.066 130.146 344.133C125.773 344.133 121.855 344.133 117.35 344.133C117.35 343.097 117.35 342.049 117.35 340.982C117.35 340.982 117.35 340.982 120.795 340.152C120.795 334.182 120.795 328.708 120.795 322.24C117.35 321.245 117.35 321.245 117.35 321.245C117.35 320.002 117.35 318.413 117.35 317.133Z" fill="#7D7D7D"/>
<path fill-rule="evenodd" clip-rule="evenodd" d="M103.078 317.133H95.2042C95.1518 317.271 95.1094 317.383 95.0668 317.496C94.6552 318.581 94.235 319.664 84.8693 344.12C85.8905 344.12 87.007 344.123 88.1152 344.126C89.207 344.129 90.2906 344.133 91.2671 344.133C92.2357 341.509 92.5688 340.606 92.9613 339.731C93.1671 339.272 93.3892 338.821 93.7278 338.133H103.571C103.909 338.821 104.131 339.272 104.337 339.731C104.729 340.606 105.063 341.509 106.031 344.133C106.031 344.133 108.938 344.142 109.476 344.12C109.706 344.123 109.964 344.128 110.237 344.133C111.13 344.151 112.181 344.172 112.921 344.133C106.031 324.633 103.078 317.133 103.078 317.133ZM98.157 322.633H100.126L103.078 334.133H95.2042L98.157 322.633Z" fill="#797979"/>
<path d="M58.2939 317.133C60.2615 317.133 62.6645 317.133 64.6917 317.133C71.0895 336.133 71.0895 336.133 71.0895 336.133C71.5816 337.633 72.5659 337.633 73.058 336.133C73.058 336.133 73.058 336.133 78.4904 317.133C80.458 317.133 82.8421 317.133 84.8693 317.133C83.3929 321.633 75.5187 344.133 75.5187 344.133C73.3325 344.133 70.8813 344.133 68.6288 344.133L58.2939 317.133Z" fill="#797979"/>
<path fill-rule="evenodd" clip-rule="evenodd" d="M49.9277 317.133H42.0535C42.0011 317.271 41.9587 317.383 41.9161 317.496C41.5045 318.581 41.0843 319.664 31.7186 344.12C32.7398 344.12 33.8563 344.123 34.9645 344.126C36.0563 344.129 37.1399 344.133 38.1164 344.133C39.085 341.509 39.4181 340.606 39.8106 339.731C40.0164 339.272 40.2385 338.821 40.5771 338.133H50.4198C50.7584 338.821 50.9804 339.272 51.1863 339.731C51.5788 340.606 51.912 341.509 52.8805 344.133C52.8805 344.133 55.7874 344.142 56.3254 344.12C56.5555 344.123 56.8133 344.128 57.086 344.133C57.9796 344.151 59.0305 344.172 59.7704 344.133C52.8805 324.633 49.9277 317.133 49.9277 317.133ZM45.0063 322.633H46.9749L49.9277 334.133H42.0535L45.0063 322.633Z" fill="#797979"/>
<defs>
<clipPath id="clip0_0_1">
<rect width="240.898" height="277" fill="white" transform="translate(22 25)"/>
</clipPath>
</defs>
</svg>
