<svg width="420" height="204" viewBox="0 0 420 204" fill="none" xmlns="http://www.w3.org/2000/svg">
<mask id="path-1-outside-1_1_282" maskUnits="userSpaceOnUse" x="0" y="0" width="420" height="204" fill="black">
<rect fill="white" width="420" height="204"/>
<path fill-rule="evenodd" clip-rule="evenodd" d="M214.68 2.00146L212.971 2.00043C199.06 1.96865 187.266 3.68984 174.636 8.29349L172.421 9.13648C168.564 10.5514 165 12.0773 161.544 14.0332L160.056 14.9002C155.842 17.3427 151.943 19.8778 148.326 22.8646L146.79 24.1928C145.321 25.4456 143.875 26.7051 142.469 28.0009L141.183 29.2115C139.957 30.3238 138.81 31.4438 137.707 32.6325C124.917 47.9998 118.587 66.2592 123.211 84.4669L123.561 85.6726H121.959L120.773 86.7754C118.19 89.5812 115.64 92.033 112.194 94.203L110.745 95.0828C108.666 96.4167 106.578 97.6826 104.337 98.8468C99.4836 101.068 96.235 101.671 90.7206 100.729C90.7206 100.249 90.7206 99.9523 90.6364 99.7034C90.5007 99.3019 90.1459 99.024 89.2188 98.2979C84.7008 95.8917 80.1267 94.2986 74.6008 94.2986L71.497 94.4555V92.5734C67.5398 89.4741 64.1231 88.4655 58.6874 87.6968L56.3783 87.3978C54.1652 87.0906 50.8548 86.4486 48.7905 85.5596L48.2684 85.0836C48.3363 84.6767 48.7191 83.3015 48.7905 82.8928C49.4142 79.3185 49.7365 77.8696 48.2684 74.3804C46.4018 71.9961 44.3239 69.8293 40.8843 68.8617C38.0039 68.6608 36.2088 68.9264 33.86 70.2781C29.5785 73.7966 26.5479 78.3629 26.3414 83.2809C27.0682 89.068 30.0062 93.8664 35.753 97.6314L37.8556 98.8468L37.5709 98.9001C32.8195 99.788 28.0708 100.675 23.5129 102.067C14.9179 105.284 7.91668 109.788 4.13594 116.785C2.38537 121.121 0.727783 127.89 3.41317 132.096C6.62589 134.487 7.64984 135.892 7.91872 139.389C7.9972 140.723 8.09805 142.056 8.21909 143.388C9.40091 148.659 10.6952 152.123 16.1789 155.504C18.712 156.597 19.8208 156.969 22.6368 156.563C24.6946 155.642 25.6648 154.922 26.842 153.308L27.4427 152.171H29.0447V154.053C31.0289 156.544 33.6147 158.003 36.726 159.572C40.2992 160.969 43.2175 160.688 47.0669 159.935C57.5805 155.406 62.9475 147.898 67.9457 139.673L69.094 137.742L69.7095 137.805C72.2478 138.062 74.7821 138.32 77.3323 138.497C82.6061 138.606 85.7248 137.767 89.5348 135.047C94.6255 130.914 98.8392 126.677 98.9307 120.726L98.7305 118.922C102.844 119.081 106.111 118.218 109.957 117.153C117.21 114.907 125.279 110.233 128.624 104.591L129.168 103.238C131.741 104.844 131.741 104.844 133.189 107.266L134.074 108.61C134.415 109.12 134.756 109.63 135.098 110.14C135.343 110.507 135.588 110.873 135.832 111.239C136.512 112.268 136.512 112.268 137.178 113.276C137.196 113.304 137.218 113.337 137.242 113.377C137.866 114.359 140.77 118.937 159.882 131.123C162.489 132.675 165.062 134.255 167.615 135.86C166.419 138.146 165.223 140.433 164.031 142.721C163.541 143.662 163.05 144.604 162.559 145.545C162.134 146.357 161.704 147.168 161.274 147.98C159.359 151.594 157.441 155.213 155.916 158.937C154.759 161.471 154.171 162.758 153.543 164.011C152.894 165.303 152.201 166.559 150.795 169.11L150.676 169.326C149.468 171.527 148.26 173.727 147.065 175.932C146.64 176.716 146.215 177.501 145.788 178.284L145.707 178.43C143.163 183.009 140.754 187.345 140.317 192.398C140.491 195.555 143.638 198.678 146.489 200.751C150.702 202.279 154.573 202.328 159.03 201.317C162.482 200.152 164.453 198.813 166.135 196.093L166.814 194.831C167.608 193.385 168.361 191.933 169.089 190.466L169.359 189.911C170.129 188.33 170.898 186.75 171.672 185.17L172.321 183.852C174.698 179.022 177.211 174.238 179.741 169.456C183.877 161.643 187.98 153.841 191.614 145.873L192.446 144.016C193.405 144.078 194.372 144.141 195.346 144.206C207.199 144.989 220.095 145.84 231.616 143.94C258.955 137.864 278.997 126.612 294.027 107.598L294.972 106.375C295.372 107.314 295.572 107.784 295.82 108.208C296.07 108.633 296.368 109.011 296.965 109.769L298.426 111.433L298.463 111.475C299.91 113.15 300.921 114.32 303.166 115.351L304.584 115.785V117.04C305.052 117.284 305.517 117.53 305.98 117.774C310.116 119.955 314.125 122.07 319.102 122.921L322.205 123.313C322.086 124.53 322.038 125.02 322.021 125.513C322.01 125.846 322.013 126.18 322.018 126.739C322.738 132.85 326.273 137.887 331.817 142.134C336.175 144.985 336.175 144.986 347.211 144.731L349.439 144.643C351.745 153.091 358.012 163.194 367.311 168.169C371.765 169.587 376.108 169.675 380.677 168.482L380.754 168.448C383.464 167.235 385.163 166.475 386.585 164.248L387.085 162.836H388.687V164.091L388.72 164.125C390.339 165.789 391.591 167.076 394.329 167.453C397.464 167.471 399.594 167.361 401.972 165.728C407.28 161.407 409.677 156.087 409.713 150.093L409.513 147.78H411.916C412.629 147.314 413.062 147.032 413.466 146.692C414.092 146.167 414.65 145.505 416.071 143.82C418.867 139.246 418.235 133.601 416.622 128.803C413.405 121.644 408.105 117.03 399.648 113.478L397.899 112.766C394.607 111.357 391.61 110.084 387.861 109.661L385.483 109.512V108.257C387.097 108.052 388.083 107.926 389.008 107.548C390.459 106.954 391.757 105.738 395.095 102.611C399.18 98.0999 400.165 93.6324 399.1 88.182C397.605 84.6208 395.491 81.1628 391.09 79.3992C387.777 78.9024 385.452 79.0702 382.48 80.3402C377.719 84.4827 377.136 87.9424 377.361 93.4752L377.473 95.0828C376.716 95.425 376.326 95.6014 375.924 95.698C375.496 95.8009 375.055 95.8133 374.146 95.8389L372.036 95.9086L369.751 95.9883L367.361 96.063C365.097 96.1402 362.834 96.2172 360.57 96.2899L359.051 96.3375V97.5922H356.648L356.502 97.6996C354.751 98.9887 353.363 100.011 350.913 100.32C344.019 100.653 337.85 101.683 332.468 105.277L330.215 107.002C322.013 104.98 316.03 101.499 310.91 96.09L309.39 94.4555L307.719 92.8797L306.136 91.3187L304.706 89.9464C303.724 88.0693 303.745 87.3426 304.021 85.3761C305.211 78.4454 305.05 71.3168 304.584 64.3429C302.492 48.4932 291.744 31.2449 276.008 20.985L274.146 19.8013C264.536 13.2224 254.347 8.16066 242.139 5.14236L240.505 4.74506C231.962 2.55053 223.63 2.02631 214.68 2.00146ZM135.832 70.4482C135.832 34.9651 186.712 13.8115 218.45 14.9002C248.689 15.9375 292.032 35.3111 291.388 74.3804C290.752 112.993 240.767 127.232 210.881 128.229C179.479 129.276 135.832 111.029 135.832 70.4482Z"/>
</mask>
<path fill-rule="evenodd" clip-rule="evenodd" d="M214.68 2.00146L212.971 2.00043C199.06 1.96865 187.266 3.68984 174.636 8.29349L172.421 9.13648C168.564 10.5514 165 12.0773 161.544 14.0332L160.056 14.9002C155.842 17.3427 151.943 19.8778 148.326 22.8646L146.79 24.1928C145.321 25.4456 143.875 26.7051 142.469 28.0009L141.183 29.2115C139.957 30.3238 138.81 31.4438 137.707 32.6325C124.917 47.9998 118.587 66.2592 123.211 84.4669L123.561 85.6726H121.959L120.773 86.7754C118.19 89.5812 115.64 92.033 112.194 94.203L110.745 95.0828C108.666 96.4167 106.578 97.6826 104.337 98.8468C99.4836 101.068 96.235 101.671 90.7206 100.729C90.7206 100.249 90.7206 99.9523 90.6364 99.7034C90.5007 99.3019 90.1459 99.024 89.2188 98.2979C84.7008 95.8917 80.1267 94.2986 74.6008 94.2986L71.497 94.4555V92.5734C67.5398 89.4741 64.1231 88.4655 58.6874 87.6968L56.3783 87.3978C54.1652 87.0906 50.8548 86.4486 48.7905 85.5596L48.2684 85.0836C48.3363 84.6767 48.7191 83.3015 48.7905 82.8928C49.4142 79.3185 49.7365 77.8696 48.2684 74.3804C46.4018 71.9961 44.3239 69.8293 40.8843 68.8617C38.0039 68.6608 36.2088 68.9264 33.86 70.2781C29.5785 73.7966 26.5479 78.3629 26.3414 83.2809C27.0682 89.068 30.0062 93.8664 35.753 97.6314L37.8556 98.8468L37.5709 98.9001C32.8195 99.788 28.0708 100.675 23.5129 102.067C14.9179 105.284 7.91668 109.788 4.13594 116.785C2.38537 121.121 0.727783 127.89 3.41317 132.096C6.62589 134.487 7.64984 135.892 7.91872 139.389C7.9972 140.723 8.09805 142.056 8.21909 143.388C9.40091 148.659 10.6952 152.123 16.1789 155.504C18.712 156.597 19.8208 156.969 22.6368 156.563C24.6946 155.642 25.6648 154.922 26.842 153.308L27.4427 152.171H29.0447V154.053C31.0289 156.544 33.6147 158.003 36.726 159.572C40.2992 160.969 43.2175 160.688 47.0669 159.935C57.5805 155.406 62.9475 147.898 67.9457 139.673L69.094 137.742L69.7095 137.805C72.2478 138.062 74.7821 138.32 77.3323 138.497C82.6061 138.606 85.7248 137.767 89.5348 135.047C94.6255 130.914 98.8392 126.677 98.9307 120.726L98.7305 118.922C102.844 119.081 106.111 118.218 109.957 117.153C117.21 114.907 125.279 110.233 128.624 104.591L129.168 103.238C131.741 104.844 131.741 104.844 133.189 107.266L134.074 108.61C134.415 109.12 134.756 109.63 135.098 110.14C135.343 110.507 135.588 110.873 135.832 111.239C136.512 112.268 136.512 112.268 137.178 113.276C137.196 113.304 137.218 113.337 137.242 113.377C137.866 114.359 140.77 118.937 159.882 131.123C162.489 132.675 165.062 134.255 167.615 135.86C166.419 138.146 165.223 140.433 164.031 142.721C163.541 143.662 163.05 144.604 162.559 145.545C162.134 146.357 161.704 147.168 161.274 147.98C159.359 151.594 157.441 155.213 155.916 158.937C154.759 161.471 154.171 162.758 153.543 164.011C152.894 165.303 152.201 166.559 150.795 169.11L150.676 169.326C149.468 171.527 148.26 173.727 147.065 175.932C146.64 176.716 146.215 177.501 145.788 178.284L145.707 178.43C143.163 183.009 140.754 187.345 140.317 192.398C140.491 195.555 143.638 198.678 146.489 200.751C150.702 202.279 154.573 202.328 159.03 201.317C162.482 200.152 164.453 198.813 166.135 196.093L166.814 194.831C167.608 193.385 168.361 191.933 169.089 190.466L169.359 189.911C170.129 188.33 170.898 186.75 171.672 185.17L172.321 183.852C174.698 179.022 177.211 174.238 179.741 169.456C183.877 161.643 187.98 153.841 191.614 145.873L192.446 144.016C193.405 144.078 194.372 144.141 195.346 144.206C207.199 144.989 220.095 145.84 231.616 143.94C258.955 137.864 278.997 126.612 294.027 107.598L294.972 106.375C295.372 107.314 295.572 107.784 295.82 108.208C296.07 108.633 296.368 109.011 296.965 109.769L298.426 111.433L298.463 111.475C299.91 113.15 300.921 114.32 303.166 115.351L304.584 115.785V117.04C305.052 117.284 305.517 117.53 305.98 117.774C310.116 119.955 314.125 122.07 319.102 122.921L322.205 123.313C322.086 124.53 322.038 125.02 322.021 125.513C322.01 125.846 322.013 126.18 322.018 126.739C322.738 132.85 326.273 137.887 331.817 142.134C336.175 144.985 336.175 144.986 347.211 144.731L349.439 144.643C351.745 153.091 358.012 163.194 367.311 168.169C371.765 169.587 376.108 169.675 380.677 168.482L380.754 168.448C383.464 167.235 385.163 166.475 386.585 164.248L387.085 162.836H388.687V164.091L388.72 164.125C390.339 165.789 391.591 167.076 394.329 167.453C397.464 167.471 399.594 167.361 401.972 165.728C407.28 161.407 409.677 156.087 409.713 150.093L409.513 147.78H411.916C412.629 147.314 413.062 147.032 413.466 146.692C414.092 146.167 414.65 145.505 416.071 143.82C418.867 139.246 418.235 133.601 416.622 128.803C413.405 121.644 408.105 117.03 399.648 113.478L397.899 112.766C394.607 111.357 391.61 110.084 387.861 109.661L385.483 109.512V108.257C387.097 108.052 388.083 107.926 389.008 107.548C390.459 106.954 391.757 105.738 395.095 102.611C399.18 98.0999 400.165 93.6324 399.1 88.182C397.605 84.6208 395.491 81.1628 391.09 79.3992C387.777 78.9024 385.452 79.0702 382.48 80.3402C377.719 84.4827 377.136 87.9424 377.361 93.4752L377.473 95.0828C376.716 95.425 376.326 95.6014 375.924 95.698C375.496 95.8009 375.055 95.8133 374.146 95.8389L372.036 95.9086L369.751 95.9883L367.361 96.063C365.097 96.1402 362.834 96.2172 360.57 96.2899L359.051 96.3375V97.5922H356.648L356.502 97.6996C354.751 98.9887 353.363 100.011 350.913 100.32C344.019 100.653 337.85 101.683 332.468 105.277L330.215 107.002C322.013 104.98 316.03 101.499 310.91 96.09L309.39 94.4555L307.719 92.8797L306.136 91.3187L304.706 89.9464C303.724 88.0693 303.745 87.3426 304.021 85.3761C305.211 78.4454 305.05 71.3168 304.584 64.3429C302.492 48.4932 291.744 31.2449 276.008 20.985L274.146 19.8013C264.536 13.2224 254.347 8.16066 242.139 5.14236L240.505 4.74506C231.962 2.55053 223.63 2.02631 214.68 2.00146ZM135.832 70.4482C135.832 34.9651 186.712 13.8115 218.45 14.9002C248.689 15.9375 292.032 35.3111 291.388 74.3804C290.752 112.993 240.767 127.232 210.881 128.229C179.479 129.276 135.832 111.029 135.832 70.4482Z" fill="#6D9CE7"/>
<path fill-rule="evenodd" clip-rule="evenodd" d="M214.68 2.00146L212.971 2.00043C199.06 1.96865 187.266 3.68984 174.636 8.29349L172.421 9.13648C168.564 10.5514 165 12.0773 161.544 14.0332L160.056 14.9002C155.842 17.3427 151.943 19.8778 148.326 22.8646L146.79 24.1928C145.321 25.4456 143.875 26.7051 142.469 28.0009L141.183 29.2115C139.957 30.3238 138.81 31.4438 137.707 32.6325C124.917 47.9998 118.587 66.2592 123.211 84.4669L123.561 85.6726H121.959L120.773 86.7754C118.19 89.5812 115.64 92.033 112.194 94.203L110.745 95.0828C108.666 96.4167 106.578 97.6826 104.337 98.8468C99.4836 101.068 96.235 101.671 90.7206 100.729C90.7206 100.249 90.7206 99.9523 90.6364 99.7034C90.5007 99.3019 90.1459 99.024 89.2188 98.2979C84.7008 95.8917 80.1267 94.2986 74.6008 94.2986L71.497 94.4555V92.5734C67.5398 89.4741 64.1231 88.4655 58.6874 87.6968L56.3783 87.3978C54.1652 87.0906 50.8548 86.4486 48.7905 85.5596L48.2684 85.0836C48.3363 84.6767 48.7191 83.3015 48.7905 82.8928C49.4142 79.3185 49.7365 77.8696 48.2684 74.3804C46.4018 71.9961 44.3239 69.8293 40.8843 68.8617C38.0039 68.6608 36.2088 68.9264 33.86 70.2781C29.5785 73.7966 26.5479 78.3629 26.3414 83.2809C27.0682 89.068 30.0062 93.8664 35.753 97.6314L37.8556 98.8468L37.5709 98.9001C32.8195 99.788 28.0708 100.675 23.5129 102.067C14.9179 105.284 7.91668 109.788 4.13594 116.785C2.38537 121.121 0.727783 127.89 3.41317 132.096C6.62589 134.487 7.64984 135.892 7.91872 139.389C7.9972 140.723 8.09805 142.056 8.21909 143.388C9.40091 148.659 10.6952 152.123 16.1789 155.504C18.712 156.597 19.8208 156.969 22.6368 156.563C24.6946 155.642 25.6648 154.922 26.842 153.308L27.4427 152.171H29.0447V154.053C31.0289 156.544 33.6147 158.003 36.726 159.572C40.2992 160.969 43.2175 160.688 47.0669 159.935C57.5805 155.406 62.9475 147.898 67.9457 139.673L69.094 137.742L69.7095 137.805C72.2478 138.062 74.7821 138.32 77.3323 138.497C82.6061 138.606 85.7248 137.767 89.5348 135.047C94.6255 130.914 98.8392 126.677 98.9307 120.726L98.7305 118.922C102.844 119.081 106.111 118.218 109.957 117.153C117.21 114.907 125.279 110.233 128.624 104.591L129.168 103.238C131.741 104.844 131.741 104.844 133.189 107.266L134.074 108.61C134.415 109.12 134.756 109.63 135.098 110.14C135.343 110.507 135.588 110.873 135.832 111.239C136.512 112.268 136.512 112.268 137.178 113.276C137.196 113.304 137.218 113.337 137.242 113.377C137.866 114.359 140.77 118.937 159.882 131.123C162.489 132.675 165.062 134.255 167.615 135.86C166.419 138.146 165.223 140.433 164.031 142.721C163.541 143.662 163.05 144.604 162.559 145.545C162.134 146.357 161.704 147.168 161.274 147.98C159.359 151.594 157.441 155.213 155.916 158.937C154.759 161.471 154.171 162.758 153.543 164.011C152.894 165.303 152.201 166.559 150.795 169.11L150.676 169.326C149.468 171.527 148.26 173.727 147.065 175.932C146.64 176.716 146.215 177.501 145.788 178.284L145.707 178.43C143.163 183.009 140.754 187.345 140.317 192.398C140.491 195.555 143.638 198.678 146.489 200.751C150.702 202.279 154.573 202.328 159.03 201.317C162.482 200.152 164.453 198.813 166.135 196.093L166.814 194.831C167.608 193.385 168.361 191.933 169.089 190.466L169.359 189.911C170.129 188.33 170.898 186.75 171.672 185.17L172.321 183.852C174.698 179.022 177.211 174.238 179.741 169.456C183.877 161.643 187.98 153.841 191.614 145.873L192.446 144.016C193.405 144.078 194.372 144.141 195.346 144.206C207.199 144.989 220.095 145.84 231.616 143.94C258.955 137.864 278.997 126.612 294.027 107.598L294.972 106.375C295.372 107.314 295.572 107.784 295.82 108.208C296.07 108.633 296.368 109.011 296.965 109.769L298.426 111.433L298.463 111.475C299.91 113.15 300.921 114.32 303.166 115.351L304.584 115.785V117.04C305.052 117.284 305.517 117.53 305.98 117.774C310.116 119.955 314.125 122.07 319.102 122.921L322.205 123.313C322.086 124.53 322.038 125.02 322.021 125.513C322.01 125.846 322.013 126.18 322.018 126.739C322.738 132.85 326.273 137.887 331.817 142.134C336.175 144.985 336.175 144.986 347.211 144.731L349.439 144.643C351.745 153.091 358.012 163.194 367.311 168.169C371.765 169.587 376.108 169.675 380.677 168.482L380.754 168.448C383.464 167.235 385.163 166.475 386.585 164.248L387.085 162.836H388.687V164.091L388.72 164.125C390.339 165.789 391.591 167.076 394.329 167.453C397.464 167.471 399.594 167.361 401.972 165.728C407.28 161.407 409.677 156.087 409.713 150.093L409.513 147.78H411.916C412.629 147.314 413.062 147.032 413.466 146.692C414.092 146.167 414.65 145.505 416.071 143.82C418.867 139.246 418.235 133.601 416.622 128.803C413.405 121.644 408.105 117.03 399.648 113.478L397.899 112.766C394.607 111.357 391.61 110.084 387.861 109.661L385.483 109.512V108.257C387.097 108.052 388.083 107.926 389.008 107.548C390.459 106.954 391.757 105.738 395.095 102.611C399.18 98.0999 400.165 93.6324 399.1 88.182C397.605 84.6208 395.491 81.1628 391.09 79.3992C387.777 78.9024 385.452 79.0702 382.48 80.3402C377.719 84.4827 377.136 87.9424 377.361 93.4752L377.473 95.0828C376.716 95.425 376.326 95.6014 375.924 95.698C375.496 95.8009 375.055 95.8133 374.146 95.8389L372.036 95.9086L369.751 95.9883L367.361 96.063C365.097 96.1402 362.834 96.2172 360.57 96.2899L359.051 96.3375V97.5922H356.648L356.502 97.6996C354.751 98.9887 353.363 100.011 350.913 100.32C344.019 100.653 337.85 101.683 332.468 105.277L330.215 107.002C322.013 104.98 316.03 101.499 310.91 96.09L309.39 94.4555L307.719 92.8797L306.136 91.3187L304.706 89.9464C303.724 88.0693 303.745 87.3426 304.021 85.3761C305.211 78.4454 305.05 71.3168 304.584 64.3429C302.492 48.4932 291.744 31.2449 276.008 20.985L274.146 19.8013C264.536 13.2224 254.347 8.16066 242.139 5.14236L240.505 4.74506C231.962 2.55053 223.63 2.02631 214.68 2.00146ZM135.832 70.4482C135.832 34.9651 186.712 13.8115 218.45 14.9002C248.689 15.9375 292.032 35.3111 291.388 74.3804C290.752 112.993 240.767 127.232 210.881 128.229C179.479 129.276 135.832 111.029 135.832 70.4482Z" stroke="#0063FB" stroke-width="4" mask="url(#path-1-outside-1_1_282)"/>
<path d="M388.709 81.1149C392.838 82.0038 393.645 83.3447 395.294 85.9897C396.829 89.5972 396.965 93.5167 395.303 97.1129C391.045 103.173 384.161 106.783 376.07 109.202C377.029 109.324 377.989 109.447 378.977 109.574C390.08 111.122 401.808 113.67 408.911 121.121C410.126 122.558 411.111 123.97 412.114 125.512C412.428 125.927 412.742 126.341 413.066 126.767C415.429 131.323 415.499 137.674 413.516 142.255C411.937 143.889 411.37 143.971 408.911 144.333C408.686 143.855 408.462 143.377 408.232 142.885C404.47 135.297 399.108 130.145 390.488 125.512C388.729 125.026 388.729 125.026 387.284 124.885C388.238 127.128 388.881 127.307 391.389 128.492C397.97 131.8 402.036 135.501 404.906 141.196C405.616 142.885 404.906 141.196 405.866 143.34C405.866 143.34 405.848 143.301 406.6 146.007C406.661 146.226 406.723 146.509 406.727 147.297C406.72 147.833 406.714 148.368 406.708 148.92C406.717 149.713 406.717 149.713 406.727 150.522C406.715 153.518 406.382 155.948 404.906 158.762C403.802 160.23 403.802 160.23 403.114 161.119C401.049 162.897 401.049 162.897 398.498 163.781C396.005 163.937 394.34 164.034 392.09 163.153C389.807 159.625 388.107 155.929 386.883 152.096C384.957 146.254 381.097 140.757 376.07 136.177C374.391 135.373 374.391 135.373 372.866 134.923C374.836 137.811 376.859 140.598 379.274 143.274C383.393 148.08 386.496 153.19 386.126 159.085C385.367 161.749 383.563 163.365 380.876 165.035C377.925 166.364 375.43 166.695 372.065 166.29C361.656 162.504 357.562 154.095 353.643 146.215C353.066 144.937 352.497 143.656 351.94 142.372C350.312 138.732 348.187 136.465 344.031 134.295C344.031 133.881 344.031 133.467 344.031 133.041C342.709 132.834 341.387 132.627 340.026 132.413C341.959 135.441 344.72 137.244 348.036 139.314C347.771 139.935 347.507 140.556 347.235 141.196C338.052 141.843 338.052 141.843 334.068 139.628C328.387 135.687 325.943 131.037 325.405 125.184C325.211 120.284 325.505 116.538 328.812 112.338C329.189 111.841 329.566 111.344 329.954 110.831C333.526 106.371 337.392 103.545 344.031 102.301C346.451 102.162 348.819 102.182 351.24 102.301C351.24 103.957 351.24 105.613 351.24 107.319C350.514 107.397 349.788 107.475 349.04 107.555C341.086 108.609 336.611 110.399 331.669 115.377C328.797 119.05 328.98 123.233 329.613 127.395C331.017 131.65 334.313 135.115 338.424 138.059C340.118 138.819 340.118 138.819 341.628 139.314C341.628 138.486 341.628 137.658 341.628 136.805C340.912 136.569 340.912 136.569 340.182 136.329C338.181 135.442 337.259 134.573 335.921 133.119C335.522 132.694 335.124 132.268 334.713 131.83C331.432 127.939 331.459 124.474 332.016 119.866C333.529 115.473 337.491 112.675 342.332 110.366C346.297 109.113 351.242 109.312 355.144 110.574C358.527 112.834 361.014 114.976 363.254 117.984C364.047 118.295 364.047 118.295 364.856 118.612C364.692 118.271 364.528 117.931 364.359 117.58C364.143 117.131 363.927 116.682 363.705 116.22C363.491 115.776 363.277 115.332 363.057 114.875C362.564 113.827 362.103 112.77 361.652 111.711C361.124 111.711 360.595 111.711 360.05 111.711C360.05 111.297 360.05 110.883 360.05 110.456C359.439 110.275 358.828 110.094 358.198 109.907C356.045 109.202 356.045 109.202 353.643 107.947C354.133 101.861 354.133 101.861 356.846 99.164C359.394 97.834 360.096 97.7497 363.023 97.7157C363.756 97.6999 364.489 97.6842 365.244 97.6679C366.782 97.6459 368.319 97.6263 369.856 97.6091C374.293 97.509 377.571 97.3609 380.876 94.7726C380.869 92.598 380.769 90.4296 380.67 88.2565C380.942 85.2609 381.965 84.1941 384.581 82.0038C385.88 80.9164 387.504 80.8554 388.709 81.1149Z" fill="#F9FCFD"/>
<path d="M42.4181 71.0715C44.2572 72.1616 45.3134 73.0169 46.2227 74.6788C46.6544 77.7211 46.5855 80.4727 45.8223 83.4616C45.3515 85.4838 45.3515 85.4838 46.7672 86.8213C49.6712 88.4978 52.4104 88.6579 55.9347 88.9901C65.827 89.9696 65.827 89.9696 69.5076 92.9576C70.9635 95.0001 71.1693 96.6518 71.1127 98.9688C70.1851 101.2 68.7312 101.753 66.1973 102.949C65.4074 103.263 64.6176 103.578 63.8038 103.902C60.8487 105.332 59.6651 106.962 58.6881 109.536C58.6055 109.885 58.5229 110.234 58.4378 110.594C59.2308 110.594 60.0237 110.594 60.8407 110.594C61.0638 109.934 61.0638 109.934 61.2913 109.261C63.056 106.497 66.1192 104.449 69.6516 103.066C76.5156 102.467 80.0542 103.585 85.421 106.909C88.8031 110.202 91.1823 114.406 90.8276 118.711C89.3398 124.204 85.0284 128.121 79.2634 131.297C78.7348 131.297 78.2061 131.297 77.6614 131.297C77.9258 131.711 78.1901 132.125 78.4624 132.551C83.1724 131.902 86.5123 129.119 89.3508 126.236C91.2005 124.017 92.6163 122.064 92.8802 119.377C92.9463 118.704 93.0123 118.031 93.0804 117.338C92.6442 112.213 90.2309 107.767 85.421 104.203C81.77 102.275 78.0115 101.074 73.6565 100.557C73.6565 98.9006 73.6565 97.2444 73.6565 95.538C79.4542 95.7542 83.8267 97.3373 88.7 99.7826C88.7 100.197 88.7 100.758 88.7 101.184C89.8895 101.495 89.5508 101.244 90.7643 101.56C96.2691 108.672 98.3333 115.783 96.0841 123.769C94.2104 128.323 89.8213 131.73 84.8703 134.433C82.5387 135.042 80.9437 135.164 78.5125 135.178C77.8279 135.187 77.1434 135.196 76.4381 135.205C74.3461 135.053 73.0518 134.633 71.2535 133.806C73.3663 132.054 75.3353 130.63 77.9117 129.297C78.6221 128.922 79.3325 128.547 80.0644 128.16C80.0644 127.746 80.0644 127.332 80.0644 126.905C73.7217 128.458 69.9848 131.137 66.8757 135.651C64.9249 138.612 63.0541 141.6 61.2006 144.598C58.2698 149.125 53.9853 154.056 48.025 156.391C39.0162 157.035 39.0162 157.035 35.5096 155.293C32.6435 153.166 32.1139 152.195 31.7049 149.098C32.0073 141.56 38.972 134.457 45.3154 129.199C46.6025 128.12 46.6025 128.12 47.224 126.278C43.7701 127.686 41.4513 129.482 39.0639 131.846C38.6865 132.218 38.309 132.59 37.9201 132.974C34.1675 136.872 31.5967 141.153 29.0808 145.602C27.4688 148.446 26.008 150.99 23.1944 153.254C21.242 153.646 21.242 153.646 19.1895 153.254C15.0474 150.88 13.1793 147.66 11.9806 143.844C11.3703 139.064 11.3467 134.898 14.3836 130.669C14.6809 130.074 14.9783 129.479 15.2847 128.866C19.677 123.132 26.8748 119.191 34.4082 116.24C34.4082 115.826 34.4082 115.412 34.4082 114.986C31.8507 115.396 29.8255 116.108 27.5498 117.103C26.9375 117.367 26.3252 117.63 25.6944 117.902C23.968 118.695 23.968 118.695 22.6719 119.794C22.6719 119.794 19.8905 122.006 19.1895 122.514C18.6113 122.928 18.0331 123.342 17.4373 123.769C14.1756 126.181 12.3909 129.459 10.3786 132.551C7.27482 131.454 7.27482 131.454 6.37371 130.042C5.69728 123.737 6.18338 117.574 10.898 112.236C20.0562 103.748 32.7104 100.84 46.423 99.9294C45.9769 99.6779 45.5309 99.4264 45.0713 99.1673C38.4497 95.304 31.4114 90.794 30.1279 84.0546C29.7911 79.8205 31.3177 76.4252 34.4082 72.9536C37.1132 71.0769 38.7811 70.6561 42.4181 71.0715Z" fill="#FAFCFD"/>
<path d="M189.162 143.818C189.162 143.818 181.593 143.818 169.895 136.706C169.66 136.563 168.37 140.192 167.483 141.721C165.125 145.684 163.304 149.317 161.241 153.38C160.657 154.538 160.074 155.697 159.48 156.852L158.882 158.016L157.74 160.281C157.363 161.028 153.472 168.701 153.472 168.701C152.416 170.553 151.374 172.387 150.544 174.31C149.619 176.581 148.64 178.788 147.474 180.993C145.196 185.236 143.06 189.115 143.06 193.795C144.158 195.902 145.64 197.389 147.934 198.823C150.912 200.023 154.246 199.942 157.477 199.441C162.851 196.841 162.851 196.841 167.702 186.354L167.702 186.354C168.619 184.36 169.553 182.385 170.575 180.422C171.867 178.04 173.168 175.669 174.317 173.242C175.633 170.351 176.983 167.491 178.503 164.662C180.084 161.724 181.633 158.777 183.155 155.819L184.01 154.154C186.024 150.26 189.162 143.818 189.162 143.818Z" fill="#D9D9D9"/>
<path d="M123.506 87.3375C125.655 89.0212 125.985 90.5815 126.81 92.866C127.093 93.6334 127.376 94.4009 127.667 95.1916C128.705 98.7083 128.705 98.7083 128.312 100.512C127.085 101.962 125.913 103.179 124.457 104.472C124.06 104.829 123.664 105.187 123.256 105.555C117.912 110.227 111.57 114.42 103.481 115.568C102.146 115.592 101.086 115.783 99.4761 115.568C98.3333 114.005 98.1007 112.093 97.4236 110.353C97.2258 109.86 97.0281 109.367 96.8244 108.86C96.6411 108.385 96.4579 107.909 96.269 107.42C96.097 106.983 95.9251 106.546 95.7479 106.096C95.4712 104.903 95.4712 104.903 96.2722 103.021C97.8354 103.021 98.3824 103.145 101.086 102.449C110.844 99.6218 116.755 93.2864 123.506 87.3375Z" fill="#F9FBFC"/>
<path d="M302.437 90.8932C302.698 90.8932 304.685 92.8845 306.138 94.4489C310.267 98.8936 318.499 105.591 328.157 108.672C328.157 108.672 326.781 110.45 325.405 114.005C325.104 114.783 323.34 120.228 323.34 120.228C316.8 120 311.366 117.41 306.442 114.105C306.442 113.691 306.442 113.277 306.442 112.85C305.914 112.85 305.385 112.85 304.84 112.85C303.034 111.077 301.321 110.45 299.257 107.783C299.257 107.783 299.257 107.783 297.881 106.005C295.896 101.342 300.296 95.248 302.437 90.8932Z" fill="#EEF8FB"/>
<path d="M339.944 21.5649C350.947 21.8824 361.261 25.3065 368.779 32.2298C370.86 34.1464 371.391 35.5308 370.381 37.8759C369.39 40.1752 367.91 42.4353 365.314 42.8909C360.974 43.6526 357.763 43.0075 354.361 40.3852C353.439 39.6746 352.113 37.43 351.107 35.837C350.589 35.0153 350.054 34.2104 349.527 33.3962C349.268 32.9953 349.013 32.5894 348.744 32.1784C346.815 29.2337 344.731 26.4252 342.146 23.7998C341.728 23.3752 341.286 23.0209 340.793 22.7108C338.973 21.5649 338.667 21.528 339.944 21.5649Z" fill="#6297F5"/>
<path d="M356.391 34.1192C357.057 33.1126 358.35 33.052 360.396 34.1192C361.874 34.8905 362.078 35.4766 363.599 36.6286C364.076 36.9894 368.186 37.5573 368.755 37.5573C372.379 37.5573 366.772 42.8909 365.314 42.8909C364.626 42.8909 363.938 42.8909 361.186 42.8909C358.433 42.8909 360.623 42.8909 359.809 42.8909C359.121 42.8909 356.391 41.6693 355.681 41.113C354.637 40.2951 354.607 39.088 354.904 37.8563C355.228 36.5195 355.686 35.1835 356.391 34.1192Z" fill="#73A8F8"/>
<path d="M340.492 21.6469C341.868 21.6645 345.359 22.4455 345.359 22.4455C345.359 22.4455 347.29 22.8125 348.236 22.9947C350.577 23.4457 354.332 23.8947 354.909 24.7836C355.247 25.3033 348.139 24.7836 346.899 24.7836C346.206 24.7836 346.252 28.0437 346.048 27.7791C344.671 26.0012 343.567 25.0629 343.295 24.8228C342.775 24.3636 342.246 23.9217 341.718 23.4334C340.483 22.2899 338.43 21.6206 340.492 21.6469Z" fill="#759FE8"/>
<path d="M360.922 30.4335C362.252 29.3295 364.638 29.8132 366.379 31.1785C367.829 32.3155 368.419 34.3955 367.33 35.4523C366.357 36.3967 363.556 35.2752 361.874 34.0015C360.791 33.1813 360.165 31.0631 360.922 30.4335Z" fill="#D9F2FC"/>
<path d="M339.257 54.2736C343.445 53.329 346.885 53.3291 351.014 54.218C352.007 54.4318 354.976 55.4574 356.519 55.9959C358.061 56.5343 362.503 58.807 364.088 61.8017C365.207 63.9175 364.176 66.6631 362.886 67.6831C360.367 69.6764 357.697 70.1057 354.476 69.3299C350.651 68.4085 349.431 65.3714 347.536 62.63C346.202 60.6988 344.427 59.2999 342.571 57.6676C342.424 57.539 342.069 56.3236 342.069 55.9958C342.069 55.6681 340.693 56.8848 339.316 55.9959C339.173 55.9033 339.095 54.3103 339.257 54.2736Z" fill="#6098F3"/>
<path d="M353.078 64.8852C356.117 63.5765 355.831 63.9962 357.083 65.7741C357.453 66.2982 358.026 66.7977 358.583 66.9246C361.335 67.552 363.4 66.156 363.4 66.663C363.4 67.17 360.647 70.2188 354.455 69.3298C351.702 68.4409 350.776 67.3406 350.326 66.663C350.117 66.3489 352.765 65.0201 353.078 64.8852Z" fill="#7EA3E2"/>
<path d="M357.727 60.4405C361.52 56.8847 363.416 60.4405 364.048 63.1073C364.188 63.6965 364.048 66.663 362.152 66.663C360.255 66.663 358.875 66.3358 358.359 64.8851C357.843 63.4344 356.983 61.138 357.727 60.4405Z" fill="#DEF1FE"/>
<path d="M356.485 57.8607C357.117 57.554 359.701 58.1135 360.888 58.6699C362.784 59.5588 364.048 61.3367 362.152 60.4478C361.552 60.1667 358.317 59.368 357.75 60.5275C357.068 61.9208 359.257 64.8851 358.991 65.774C358.923 66.004 357.487 64.6032 357.117 64.0832C356.485 63.1943 355.924 62.1157 355.854 61.4164C355.802 60.8975 355.854 59.9206 355.854 59.6386C355.854 59.2728 356.139 58.0289 356.485 57.8607Z" fill="#5E92E9"/>
<path d="M350.328 54.2176C356.52 55.8177 358.243 56.6635 359.961 57.7733C361.511 58.7749 359.271 56.8848 348.951 56.0997C348.259 56.047 349.391 53.9756 350.328 54.2176Z" fill="#87A8DF"/>
<path d="M95.4604 40.8357C94.9885 41.3061 94.9613 41.2568 94.2733 42.1457C93.5852 43.0347 86.4323 51.0505 83.6155 56.4814C82.5757 58.4863 80.2093 61.2117 77.8387 62.1655C75.2964 63.1884 73.5341 63.0493 70.9302 62.4007C68.1257 61.7022 66.4083 59.9244 65.8239 58.4014C64.7643 55.6402 65.3733 52.8129 67.2256 50.7949C72.0643 45.5233 80.1475 44.2569 87.1502 42.0904C87.7864 41.8928 88.4226 41.6951 89.0781 41.4914C97.3849 38.9106 97.7138 38.59 95.4604 40.8357Z" fill="#5E98F7"/>
<path d="M74.6346 46.3011C75.4356 46.1405 75.93 46.3331 76.2365 47.1093C76.3827 47.4794 73.9938 48.9913 73.0326 50.246C72.644 50.7533 74.3184 50.1462 74.6346 50.8734C75.2093 52.1953 75.8171 55.0257 75.4356 55.2648C72.4319 57.1468 72.3985 56.7011 70.6296 57.1468C70.1898 57.2576 70.2402 58.4015 69.8287 58.4015C69.2901 58.4015 68.2267 58.1466 68.2267 58.4015C68.2267 60.0923 68.8136 59.9244 70.6296 60.9109C73.316 62.3701 73.5169 61.421 76.2365 61.5382C76.2365 61.1242 76.2365 60.7101 76.2365 60.2835C77.5582 60.2835 79.1496 59.9244 80.5113 59.9244C79.0431 61.3938 78.0258 62.0753 75.6946 62.5912C72.9007 62.7225 71.4403 62.6322 69.0277 61.5382C66.4297 59.7235 65.5794 58.2823 65.3732 55.6177C65.561 52.5644 66.9618 51.0903 69.8287 48.9913C71.3927 48.0705 72.8678 46.6553 74.6346 46.3011Z" fill="#6E9CE6"/>
<path d="M69.8883 51.4179C70.9875 51.2233 72.7983 51.4179 73.8932 52.0452C74.3781 52.323 73.4502 54.747 73.0923 55.182C72.3138 56.1282 70.6893 56.4367 68.9372 56.2014C68.686 56.1677 68.1257 55.9483 67.4376 55.4797C66.5164 54.8524 67.4972 51.8413 69.8883 51.4179Z" fill="#D9F2FE"/>
<path d="M68.3622 52.9704C68.9493 52.2661 72.3897 52.139 72.3671 52.9704C72.3427 53.8656 72.3897 54.8058 71.5661 55.4798C71.0136 55.9319 69.6374 55.6947 68.3622 54.8524C67.9341 54.5697 67.9627 53.4496 68.3622 52.9704Z" fill="#F7F8F9"/>
</svg>
